<?xml version="1.0" encoding="utf-8"?>
<!-- Generator: Adobe Illustrator 27.5.0, SVG Export Plug-In . SVG Version: 6.00 Build 0)  -->
<svg version="1.1" id="Ebene_1" xmlns="http://www.w3.org/2000/svg" xmlns:xlink="http://www.w3.org/1999/xlink" x="0px" y="0px"
	 viewBox="0 0 841.9 595.3" style="enable-background:new 0 0 841.9 595.3;" xml:space="preserve">
<style type="text/css">
	.st0{fill:#3C3C3B;}
	.st1{fill:#FFFFFF;}
</style>
<g>
	<path class="st0" d="M246.9,229.1h5.2v32.5c0,18.2-8.1,24.4-20.4,24.4c-6.4,0-12.6-3.1-16.3-9.3l4.4-2.4c2.7,4.5,7.4,6.8,11.9,6.8
		c9.2,0,15.2-4.7,15.2-19.2v-2.4c-2.8,5.1-8.7,8.2-15,8.2c-10.5,0-19.1-8.4-19.1-19.8c0-11.4,8.5-19.8,19.1-19.8
		c6.4,0,12.2,3.1,15,8.2L246.9,229.1L246.9,229.1z M246.9,248c0-9.1-7.1-15-14.6-15c-7.9,0-14.4,6.5-14.4,14.8c0,8.4,6.5,15,14.4,15
		C240.1,262.8,246.9,256.7,246.9,248z"/>
	<path class="st0" d="M287.9,229.2l-1,4.9c-1.9-0.8-3.7-1-5.1-1c-8.9,0-11.7,10.2-11.7,19.4v14.2H265V229h5.2v9.2
		c1.9-6.4,5.9-10.2,11.8-10.2C284.1,228.1,286.5,228.5,287.9,229.2z"/>
	<path class="st0" d="M322.9,229.1h5.2v37.7h-5.2v-6.6c-2.3,5.3-8.4,7.6-13.1,7.6c-9.1,0-15.3-6.3-15.2-16.7v-21.9h5.2v21.9
		c0,7.3,4.5,11.9,10.6,11.9c6,0,12.4-3.5,12.5-12.7V229.1z"/>
	<path class="st0" d="M374.5,244.8v21.9h-5.2V245c0-7.3-4.6-11.9-10.6-11.9s-12.4,3.5-12.6,12.7v20.9H341V229h5.2v6.8
		c2.3-5.4,8.4-7.7,13.1-7.7C368.3,228.1,374.5,234.4,374.5,244.8z"/>
	<path class="st0" d="M418.4,208.6h5.2v58.1h-5.2v-7.3c-2.8,5.2-8.7,8.3-15,8.3c-10.5,0-19.1-8.4-19.1-19.8
		c0-11.4,8.5-19.8,19.1-19.8c6.4,0,12.2,3.1,15,8.2V208.6z M418.4,248c0-9.1-7.1-15-14.6-15c-7.9,0-14.4,6.5-14.4,14.8
		c0,8.4,6.5,15,14.4,15C411.6,262.8,418.4,256.7,418.4,248z"/>
	<path class="st0" d="M463.1,229.1h5.6l-16,37.7h-5.3l-15.7-37.7h5.5l12.9,31.4L463.1,229.1z"/>
	<path class="st0" d="M510.8,250h-32.4c0.9,8.1,6.5,12.7,14.1,12.7c5.2,0,9.8-2.5,12.3-6.6l4.4,1.9c-3.3,6-9.8,9.6-16.9,9.6
		c-10.6,0-19.1-8-19.1-19.9s8.5-19.7,19.1-19.7c10.7,0,18.6,7.7,18.6,19.7C511,248.5,510.9,249.3,510.8,250z M505.8,245.6
		c-0.7-7.8-6.1-12.6-13.5-12.6s-12.8,4.5-13.9,12.6H505.8z"/>
	<path class="st0" d="M544,229.2l-1,4.9c-1.9-0.8-3.7-1-5.1-1c-8.9,0-11.7,10.2-11.7,19.4v14.2H521V229h5.2v9.2
		c1.9-6.4,5.9-10.2,11.8-10.2C540.1,228.1,542.6,228.5,544,229.2z"/>
	<path class="st0" d="M611.3,244.8v21.9h-5.2V245c0-7.3-4.4-11.9-10.6-11.9c-7.1-0.1-11.8,4.4-11.8,14.4v19.2h-5.1V245
		c0-7.3-4.4-11.9-10.3-11.9c-6,0-11.9,3.7-12,12.7v20.9h-5.2V229h5.2v6.7c1.9-5,7.3-7.7,12.9-7.7c6,0,11.1,3.2,13.2,9
		c2.9-7.4,9.4-9,13.9-9C605.5,228.1,611.3,234.4,611.3,244.8z"/>
	<path class="st0" d="M621.1,247.9c0-11.9,8.9-19.8,19.7-19.8s19.8,7.8,19.8,19.8c0,11.9-9,19.8-19.8,19.8S621.1,259.8,621.1,247.9z
		 M655.4,247.9c0-8.9-6.7-14.8-14.6-14.8c-8,0-14.5,6-14.5,14.8c0,8.9,6.5,14.9,14.5,14.9C648.7,262.8,655.4,256.7,655.4,247.9z
		 M630,217.5c0-2.2,1.8-3.7,3.9-3.7c2.2,0,4,1.5,4,3.7c0,2.1-1.8,3.6-4,3.6C631.8,221.1,630,219.6,630,217.5z M643.7,217.5
		c0-2.2,1.8-3.7,3.9-3.7c2.2,0,4,1.5,4,3.7c0,2.1-1.8,3.6-4,3.6S643.7,219.6,643.7,217.5z"/>
	<path class="st0" d="M702.3,229.1h5.2v32.5c0,18.2-8.1,24.4-20.4,24.4c-6.4,0-12.6-3.1-16.3-9.3l4.4-2.4c2.7,4.5,7.4,6.8,11.9,6.8
		c9.2,0,15.2-4.7,15.2-19.2v-2.4c-2.8,5.1-8.7,8.2-15,8.2c-10.5,0-19.1-8.4-19.1-19.8c0-11.4,8.5-19.8,19.1-19.8
		c6.4,0,12.2,3.1,15,8.2L702.3,229.1L702.3,229.1z M702.3,248c0-9.1-7.1-15-14.6-15c-7.9,0-14.4,6.5-14.4,14.8c0,8.4,6.5,15,14.4,15
		C695.5,262.8,702.3,256.7,702.3,248z"/>
	<path class="st0" d="M755.4,250H723c0.9,8.1,6.5,12.7,14.1,12.7c5.2,0,9.8-2.5,12.3-6.6l4.4,1.9c-3.3,6-9.8,9.6-16.9,9.6
		c-10.6,0-19.1-8-19.1-19.9s8.5-19.7,19.1-19.7c10.7,0,18.6,7.7,18.6,19.7C755.6,248.5,755.5,249.3,755.4,250z M750.4,245.6
		c-0.7-7.8-6.1-12.6-13.5-12.6s-12.8,4.5-13.9,12.6H750.4z"/>
	<path class="st0" d="M799.2,244.8v21.9H794V245c0-7.3-4.6-11.9-10.6-11.9s-12.4,3.5-12.6,12.7v20.9h-5.2V229h5.2v6.8
		c2.3-5.4,8.4-7.7,13.1-7.7C793,228.1,799.2,234.4,799.2,244.8z"/>
</g>
<g>
	<path class="st0" d="M265,323.5v-36.1h3.2v36.1H265z"/>
	<path class="st0" d="M275.4,291.6c0-1.4,1.1-2.3,2.5-2.3s2.5,0.9,2.5,2.3c0,1.3-1.1,2.2-2.5,2.2
		C276.5,293.8,275.4,292.9,275.4,291.6z M276.2,323.5v-23.4h3.2v23.4H276.2z"/>
	<path class="st0" d="M308.2,309.9v13.6H305V310c0-4.5-2.9-7.4-6.6-7.4c-3.8,0-7.7,2.2-7.8,7.9v13h-3.2v-23.4h3.2v4.2
		c1.4-3.4,5.2-4.8,8.1-4.8C304.4,299.6,308.2,303.5,308.2,309.9z"/>
	<path class="st0" d="M335.4,287.5h3.2v36.1h-3.2V319c-1.8,3.2-5.4,5.2-9.3,5.2c-6.5,0-11.9-5.2-11.9-12.3s5.3-12.3,11.9-12.3
		c4,0,7.6,1.9,9.3,5.1V287.5z M335.4,311.9c0-5.7-4.4-9.3-9.1-9.3c-4.9,0-8.9,4-8.9,9.2s4,9.3,8.9,9.3
		C331.2,321.1,335.4,317.3,335.4,311.9z"/>
	<path class="st0" d="M366.2,300.2h3.2v23.4h-3.2v-4.9c-1.7,3.2-5.3,5.5-9.5,5.5c-6.4,0-11.7-5.4-11.7-12.3
		c0-6.8,5.1-12.3,11.8-12.3c4,0,7.6,2,9.4,5.2L366.2,300.2L366.2,300.2z M366.2,311.9c0-5.5-4.4-9.3-9.1-9.3c-4.9,0-8.9,4.2-8.9,9.2
		c0,5.1,4,9.3,9,9.3C362,321.1,366.2,317.2,366.2,311.9z"/>
	<path class="st0" d="M398.2,309.9v13.6H395V310c0-4.5-2.9-7.4-6.6-7.4c-3.8,0-7.7,2.2-7.8,7.9v13h-3.2v-36.1h3.2v16.9
		c1.4-3.4,5.2-4.8,8.1-4.8C394.3,299.6,398.2,303.5,398.2,309.9z"/>
	<path class="st0" d="M404.2,311.8c0-7.4,5.6-12.3,12.2-12.3s12.2,4.9,12.2,12.3s-5.6,12.3-12.2,12.3S404.2,319.2,404.2,311.8z
		 M425.5,311.8c0-5.5-4.2-9.2-9-9.2c-5,0-9,3.7-9,9.2s4.1,9.3,9,9.3C421.3,321.1,425.5,317.3,425.5,311.8z"/>
	<path class="st0" d="M445.2,290.5c-4.4,0-5.7,3-5.7,6.7v3h6v2.8h-6v20.6h-3.2V303h-4.6v-2.8h4.6v-2.6c0-5.8,2.3-10.1,8.4-10.1h2.2
		v3.1h-1.7L445.2,290.5L445.2,290.5z"/>
</g>
<circle class="st0" cx="198.3" cy="220.4" r="11.7"/>
<path class="st1" d="M103.3,229.1h10.6v33c0,16.4-8.3,24.1-21.6,24.1c-8.1,0-15.1-4.5-18.3-11.5l8.8-3.8c1.6,3.5,5.5,5.9,9.5,5.9
	c6.8,0,11-3.8,11-13.5v-1c-2.7,3.7-7.9,5.6-12.1,5.6c-9.7,0-18.5-7.7-18.5-19.8c0-12.1,8.8-19.8,18.5-19.8c4.3,0,9.4,1.8,12.1,5.5
	V229.1z M102.9,247.9c0-5.8-4.8-9.9-9.8-9.9c-5.3,0-9.8,4.4-9.8,9.9s4.4,10,9.8,10C98.3,257.9,102.9,253.6,102.9,247.9z"/>
<path class="st1" d="M149.1,229.1h11.5l-15.9,37.7h-9.4l-15.9-37.7h11.4l9.2,24L149.1,229.1z"/>
<path class="st1" d="M166.3,266.7v-58.1h10.6v58.1H166.3z"/>
</svg>
