<?xml version="1.0" encoding="utf-8"?>
<!-- Generator: Adobe Illustrator 27.5.0, SVG Export Plug-In . SVG Version: 6.00 Build 0)  -->
<svg version="1.1" id="Ebene_1" xmlns="http://www.w3.org/2000/svg" xmlns:xlink="http://www.w3.org/1999/xlink" x="0px" y="0px"
	 viewBox="0 0 841.9 595.3" style="enable-background:new 0 0 841.9 595.3;" xml:space="preserve">
<style type="text/css">
	.st0{fill:#FFFFFF;}
	.st1{fill:#3C3C3B;}
</style>
<g>
	<path class="st0" d="M276.3,305.5v20.6h-10.6v-20c0-5.9-3.5-8.6-7.2-8.6c-3.8,0-8.5,2.1-8.5,8.9v19.8h-10.6v-58.1H250v26.4
		c1.6-4.8,7.7-6.9,11.3-6.9C271.2,287.6,276.4,294.3,276.3,305.5z"/>
	<path class="st0" d="M314.8,288.5h10.6v37.7h-10.6v-5.4c-2.5,3.9-7.3,6.4-12.4,6.4c-10.4,0-18.1-8.1-18.1-19.8s7.6-19.8,18.4-19.8
		c4.8,0,9.7,2.1,12.2,6v-5.1H314.8z M314.4,307.4c0-5.7-4.6-10-9.8-10c-5.5,0-9.6,4.5-9.6,10c0,5.2,4.1,9.9,9.7,9.9
		C310,317.3,314.4,312.8,314.4,307.4z"/>
	<path class="st1" d="M353,307.3c0-11.9,9.2-19.8,20-19.8c5.3,0,10.2,2,13.5,5.2l-3.1,3.5c-2.6-2.3-6.2-3.8-10.2-3.8
		c-8.3,0-15,6-15,14.8s6.7,14.9,15,14.9c4,0,7.5-1.5,10.2-3.8l3.2,3.5c-3.4,3.2-8.2,5.2-13.5,5.2C362.2,327.2,353,319.3,353,307.3z"
		/>
	<path class="st1" d="M392.4,307.3c0-11.9,8.9-19.8,19.7-19.8c10.7,0,19.8,7.8,19.8,19.8c0,11.9-9,19.8-19.8,19.8
		C401.3,327.2,392.4,319.3,392.4,307.3z M426.7,307.3c0-8.9-6.7-14.8-14.6-14.8c-8,0-14.5,6-14.5,14.8c0,8.9,6.5,14.9,14.5,14.9
		C420,322.2,426.7,316.2,426.7,307.3z"/>
	<path class="st1" d="M475.6,304.3v21.9h-5.2v-21.7c0-7.3-4.6-11.9-10.6-11.9s-12.4,3.5-12.6,12.7v20.9H442v-37.7h5.2v6.8
		c2.3-5.4,8.4-7.7,13.1-7.7C469.4,287.6,475.6,293.9,475.6,304.3z"/>
	<path class="st1" d="M484.9,316.2h4.8c0.6,3.1,3.5,6.4,8.9,6.4s8.7-2.8,8.7-6.6c0-3.1-2.1-5.1-6-6l-5.4-1.3
		c-5.3-1.3-9.6-4-9.6-10.3c0-6.1,5.2-10.7,12.4-10.7c6.3,0,12.1,3.5,12.3,10.2h-5c-0.2-3.4-3.5-5.6-7.3-5.6c-4.4,0-7.3,2.7-7.3,6.2
		s3.1,5.1,5.8,5.7l5.6,1.4c7.3,1.8,9.6,6.2,9.6,10.6c0,6.7-6,11.1-13.9,11.1C492.1,327.2,485.5,323.4,484.9,316.2z"/>
	<path class="st1" d="M550.3,288.5h5.2v37.7h-5.2v-6.6c-2.3,5.3-8.4,7.6-13.1,7.6c-9.1,0-15.3-6.3-15.2-16.7v-21.9h5.2v21.9
		c0,7.3,4.5,11.9,10.6,11.9c6,0,12.4-3.5,12.5-12.7V288.5z"/>
	<path class="st1" d="M568.4,326.2v-58.1h5.2v58.1H568.4z"/>
	<path class="st1" d="M602.8,288.5v4.4h-8.6v33.2H589V293h-6.9v-4.4h6.9v-14.1h5.1v14.1h8.7V288.5z"/>
</g>
<circle class="st1" cx="342.4" cy="278" r="10"/>
</svg>
