<?xml version="1.0" encoding="utf-8"?>
<!-- Generator: Adobe Illustrator 27.5.0, SVG Export Plug-In . SVG Version: 6.00 Build 0)  -->
<svg version="1.1" id="Layer_1" xmlns="http://www.w3.org/2000/svg" xmlns:xlink="http://www.w3.org/1999/xlink" x="0px" y="0px"
	 viewBox="0 0 40 40" style="enable-background:new 0 0 40 40;" xml:space="preserve">
<style type="text/css">
	.st0{display:none;}
	.st1{display:inline;}
	.st2{display:inline;fill-rule:evenodd;clip-rule:evenodd;}
	.st3{fill:#FFFFFF;}
</style>
<g class="st0">
	<path class="st1" d="M20,36.5c-0.3,0-0.5-0.1-0.7-0.4L9.5,21.5c-1.2-1.9-1.8-4-1.8-6.2C7.7,8.8,13.2,3.5,20,3.5
		c6.8,0,12.3,5.3,12.3,11.9c0,2.2-0.6,4.3-1.8,6.1l-9.9,14.6C20.5,36.4,20.3,36.5,20,36.5L20,36.5z M20,5.2
		c-5.9,0-10.7,4.6-10.7,10.2c0,1.9,0.5,3.7,1.5,5.3L20,34.2l9.1-13.6c1-1.6,1.5-3.4,1.5-5.2C30.7,9.7,25.9,5.2,20,5.2L20,5.2z"/>
	<path class="st1" d="M20,20.9c-3.2,0-5.7-2.5-5.7-5.5c0-3.1,2.6-5.5,5.7-5.5s5.7,2.5,5.7,5.5C25.7,18.4,23.2,20.9,20,20.9L20,20.9z
		 M20,11.5c-2.2,0-4.1,1.7-4.1,3.9s1.8,3.9,4.1,3.9s4.1-1.7,4.1-3.9C24.1,13.2,22.2,11.5,20,11.5L20,11.5z"/>
</g>
<path class="st0" d="M36.7,34.3L26.1,23.6c3.9-4.7,3.7-11.7-0.7-16.1C23.1,5.2,20.1,4,16.9,4s-6.2,1.2-8.4,3.5
	c-4.6,4.7-4.6,12.2,0,16.9c2.3,2.3,5.2,3.5,8.4,3.5c2.9,0,5.6-1,7.7-2.9l10.6,10.7c0.2,0.2,0.5,0.3,0.7,0.3s0.5-0.1,0.7-0.3
	C37.1,35.3,37.1,34.7,36.7,34.3z M9.8,23.1c-3.9-4-3.9-10.4,0-14.4c1.9-1.9,4.5-3,7.2-3s5.2,1.1,7.2,3c3.9,4,3.9,10.4,0,14.4
	c-1.9,1.9-4.5,3-7.2,3S11.7,25,9.8,23.1z"/>
<path class="st0" d="M25.4,34.8c-0.1,0-0.1,0-0.2,0l-10.5-2.6L4.1,34.8c-0.1,0-0.1,0-0.2,0c-0.2,0-0.4-0.1-0.5-0.2
	C3.1,34.5,3,34.3,3,34V8.6c0-0.4,0.3-0.7,0.7-0.8l10.8-2.6l0.4,0l10.5,2.6l10.6-2.6c0.1,0,0.1,0,0.2,0c0.2,0,0.4,0.1,0.5,0.2
	C36.9,5.5,37,5.7,37,6v25.4c0,0.4-0.3,0.7-0.7,0.8l-10.8,2.6C25.5,34.8,25.4,34.8,25.4,34.8L25.4,34.8z M15.5,30.7l9,2.2V9.3l-9-2.2
	C15.5,7.1,15.5,30.7,15.5,30.7z M26.2,9.3v23.6l9-2.2V7.1L26.2,9.3z M4.7,9.3v23.6l9-2.2V7.1L4.7,9.3z"/>
<g class="st0">
	<path class="st1" d="M9.7,35C7.1,35,5,32.9,5,30.3c0-2.6,2.1-4.7,4.7-4.7c2.6,0,4.7,2.1,4.7,4.7C14.4,32.9,12.3,35,9.7,35L9.7,35z
		 M9.7,27.4c-1.6,0-2.9,1.3-2.9,2.9c0,1.6,1.3,2.9,2.9,2.9s2.9-1.3,2.9-2.9C12.6,28.7,11.3,27.4,9.7,27.4L9.7,27.4z"/>
	<path class="st1" d="M24.6,35c-0.6,0-1.1-0.5-1.1-1.1c0-9.6-7.8-17.3-17.3-17.3C5.5,16.5,5,16,5,15.4s0.5-1.1,1.1-1.1
		c10.8,0,19.6,8.8,19.6,19.6C25.7,34.5,25.2,35,24.6,35L24.6,35z"/>
	<path class="st1" d="M33.9,35c-0.6,0-1.1-0.5-1.1-1.1c0-14.8-12-26.8-26.8-26.8C5.5,7.2,5,6.7,5,6.1S5.5,5,6.1,5
		C22,5,35,18,35,33.9C35,34.5,34.5,35,33.9,35L33.9,35z"/>
</g>
<g class="st0">
	<path class="st2" d="M20,29.6c-6.9,0-13.4-3.7-17-9.6c3.6-5.9,10.1-9.6,17-9.6c6.9,0,13.4,3.7,17,9.6C33.4,25.9,26.9,29.6,20,29.6
		L20,29.6z M20,12.3c-5.8,0-11.3,2.8-14.7,7.6L5.2,20l0.1,0.1c3.4,4.8,8.9,7.6,14.7,7.6c5.8,0,11.3-2.8,14.7-7.6l0.1-0.1l-0.1-0.1
		C31.3,15.1,25.8,12.3,20,12.3L20,12.3z"/>
	<path class="st2" d="M20,13.5c-3.6,0-6.5,2.9-6.5,6.5s2.9,6.5,6.5,6.5c3.6,0,6.5-2.9,6.5-6.5S23.6,13.5,20,13.5z M20,24.9
		c-2.7,0-4.9-2.2-4.9-4.9s2.2-4.9,4.9-4.9c2.7,0,4.9,2.2,4.9,4.9S22.7,24.9,20,24.9z"/>
</g>
<path class="st0" d="M7.3,35.5c-0.4,0-0.7-0.3-0.7-0.7v-7.6c0-0.4,0.3-0.7,0.7-0.7h3.2v-6.3c0-0.3,0.3-0.6,0.6-0.6h8.2v-5.9h-3.2
	c-0.4,0-0.7-0.3-0.7-0.7V5.2c0-0.4,0.3-0.7,0.7-0.7h7.6c0.4,0,0.7,0.3,0.7,0.7v7.6c0,0.4-0.3,0.7-0.7,0.7h-3.2v5.9h8.2
	c0.3,0,0.6,0.3,0.6,0.6v6.3h3.2c0.4,0,0.7,0.3,0.7,0.7v7.6c0,0.4-0.3,0.7-0.7,0.7h-7.6c-0.4,0-0.7-0.3-0.7-0.7v-7.6
	c0-0.4,0.3-0.7,0.7-0.7h3.2v-5.7H11.8v5.7h3.2c0.4,0,0.7,0.3,0.7,0.7v7.6c0,0.4-0.3,0.7-0.7,0.7L7.3,35.5L7.3,35.5z M8.1,34.1h6.1
	v-6.2H8.1V34.1z M25.8,34.1h6.1v-6.2h-6.1V34.1z M16.9,12.1h6.1V5.9h-6.1V12.1z"/>
<g class="st0">
	<path class="st1" d="M11,35c-0.4,0-0.7-0.3-0.8-0.7L8.9,9.9H5.8C5.3,9.9,5,9.6,5,9.2c0-0.4,0.3-0.8,0.8-0.8h3.6l0.2,0l0.1,0h5.2
		V5.8c0-0.4,0.3-0.8,0.8-0.8h8.9c0.4,0,0.8,0.3,0.8,0.8v2.7h5.2l0.2,0l0.1,0h3.6c0.4,0,0.8,0.3,0.8,0.8c0,0.4-0.3,0.8-0.8,0.8h-3.1
		l-1.4,24.3c0,0.4-0.4,0.7-0.8,0.7L11,35L11,35z M11.7,33.5h16.5l1.3-23.5H10.4L11.7,33.5z M16.3,8.4h7.4V6.5h-7.4V8.4z"/>
	<path class="st1" d="M14.3,12.2c-0.2,0-0.4,0.1-0.6,0.3c-0.1,0.2-0.2,0.3-0.2,0.6l1,17.6c0,0.4,0.4,0.7,0.8,0.7v0.2l0-0.2
		c0.4,0,0.7-0.4,0.7-0.8l-1-17.6C15,12.5,14.7,12.2,14.3,12.2L14.3,12.2z"/>
	<path class="st1" d="M25.7,12.2c-0.4,0-0.8,0.3-0.8,0.7l-1,17.6c0,0.4,0.3,0.8,0.7,0.8l0,0.2v-0.2c0.4,0,0.7-0.3,0.8-0.7l1-17.6
		c0-0.2-0.1-0.4-0.2-0.6C26.1,12.3,25.9,12.2,25.7,12.2C25.7,12.2,25.7,12.2,25.7,12.2L25.7,12.2z"/>
	<path class="st1" d="M20,12.2c-0.4,0-0.8,0.3-0.8,0.8v17.6c0,0.4,0.3,0.8,0.8,0.8s0.8-0.3,0.8-0.8V13C20.8,12.5,20.4,12.2,20,12.2
		L20,12.2z"/>
</g>
<g class="st0">
	<path class="st1" d="M8.2,15.8C5.9,15.8,4,17.7,4,20c0,2.3,1.9,4.2,4.2,4.2c2.3,0,4.2-1.9,4.2-4.2C12.5,17.7,10.6,15.8,8.2,15.8z
		 M8.2,22.8c-1.6,0-2.8-1.3-2.8-2.8c0-1.6,1.3-2.8,2.8-2.8c1.6,0,2.8,1.3,2.8,2.8C11.1,21.6,9.8,22.8,8.2,22.8z"/>
	<path class="st1" d="M20,15.8c-2.3,0-4.2,1.9-4.2,4.2s1.9,4.2,4.2,4.2c2.3,0,4.2-1.9,4.2-4.2C24.2,17.7,22.3,15.8,20,15.8z
		 M20,22.8c-1.6,0-2.8-1.3-2.8-2.8c0-1.6,1.3-2.8,2.8-2.8c1.6,0,2.8,1.3,2.8,2.8S21.6,22.8,20,22.8z"/>
	<path class="st1" d="M31.8,15.8c-2.3,0-4.2,1.9-4.2,4.2s1.9,4.2,4.2,4.2c2.3,0,4.2-1.9,4.2-4.2C36,17.7,34.1,15.8,31.8,15.8z
		 M31.8,22.8c-1.6,0-2.8-1.3-2.8-2.8c0-1.6,1.3-2.8,2.8-2.8c1.6,0,2.8,1.3,2.8,2.8C34.6,21.6,33.3,22.8,31.8,22.8z"/>
</g>
<path class="st0" d="M33.1,19.1H9L20.8,7.5c0.3-0.3,0.4-0.9,0-1.2s-0.9-0.3-1.2,0L6.3,19.3C6.1,19.5,6,19.7,6,20c0,0,0,0,0,0
	c0,0,0,0,0,0c0,0.3,0.2,0.6,0.4,0.8l13.3,13c0.2,0.2,0.4,0.2,0.6,0.2c0.2,0,0.5-0.1,0.6-0.3c0.3-0.3,0.3-0.9,0-1.2L9.1,20.9h24.1
	c0.5,0,0.9-0.4,0.9-0.9S33.6,19.1,33.1,19.1z"/>
<path class="st0" d="M34,20c0-0.3-0.2-0.6-0.4-0.8l-13.3-13c-0.3-0.3-0.9-0.3-1.2,0s-0.3,0.9,0,1.2l11.9,11.6H6.9
	C6.4,19.1,6,19.5,6,20s0.4,0.9,0.9,0.9H31L19.2,32.5c-0.3,0.3-0.4,0.9,0,1.2c0.2,0.2,0.4,0.3,0.6,0.3c0.2,0,0.4-0.1,0.6-0.2
	l13.4-13.1C33.9,20.5,34,20.3,34,20C34,20,34,20,34,20C34,20,34,20,34,20z"/>
<path class="st0" d="M33.8,19.6L20.7,6.3C20.5,6.1,20.3,6,20,6c0,0,0,0,0,0s0,0,0,0c-0.3,0-0.6,0.2-0.8,0.4l-13,13.3
	c-0.3,0.3-0.3,0.9,0,1.2c0.2,0.2,0.4,0.2,0.6,0.2c0.2,0,0.5-0.1,0.6-0.3L19.1,9.1v24.1c0,0.5,0.4,0.9,0.9,0.9c0.5,0,0.9-0.4,0.9-0.9
	V9l11.6,11.9c0.3,0.3,0.9,0.4,1.2,0C34.1,20.5,34.1,20,33.8,19.6z"/>
<path class="st3" d="M33.7,19.1c-0.3-0.3-0.9-0.3-1.2,0L20.9,30.9V6.9C20.9,6.4,20.5,6,20,6c-0.5,0-0.9,0.4-0.9,0.9V31L7.5,19.2
	c-0.3-0.3-0.9-0.4-1.2,0s-0.4,0.9,0,1.2l13.1,13.4c0.2,0.2,0.4,0.3,0.6,0.3c0,0,0,0,0,0s0,0,0,0c0.3,0,0.6-0.2,0.8-0.4l13-13.3
	C34.1,20,34.1,19.4,33.7,19.1z"/>
</svg>
