<?xml version="1.0" encoding="utf-8"?>
<!-- Generator: Adobe Illustrator 27.5.0, SVG Export Plug-In . SVG Version: 6.00 Build 0)  -->
<svg version="1.1" id="Ebene_1" xmlns="http://www.w3.org/2000/svg" xmlns:xlink="http://www.w3.org/1999/xlink" x="0px" y="0px"
	 viewBox="0 0 1920 1080" style="enable-background:new 0 0 1920 1080;" xml:space="preserve">
<style type="text/css">
	.st0{fill:#3C3C3B;}
</style>
<g>
	<path class="st0" d="M785.8,530.5C785.8,530.5,785.8,530.5,785.8,530.5C785.8,530.5,785.8,530.5,785.8,530.5
		c-5.2,0-9.5,4.3-9.5,9.5s4.3,9.5,9.5,9.5c0,0,0,0,0,0s0,0,0,0c5.2,0,9.5-4.3,9.5-9.5S791,530.5,785.8,530.5z"/>
	<circle class="st0" cx="804.9" cy="520.9" r="8.8"/>
	<circle class="st0" cx="823.9" cy="501.8" r="8.1"/>
	<circle class="st0" cx="843" cy="482.7" r="7.4"/>
	<path class="st0" d="M862.1,470.3c3.7,0,6.7-3,6.7-6.7c0-3.7-3-6.7-6.7-6.7s-6.7,3-6.7,6.7C855.5,467.3,858.4,470.3,862.1,470.3z"
		/>
	<path class="st0" d="M881.2,450.5c3.3,0,6-2.7,6-6c0-3.3-2.7-6-6-6c-3.3,0-6,2.7-6,6C875.3,447.9,877.9,450.5,881.2,450.5z"/>
	<path class="st0" d="M900.3,430.7c2.9,0,5.2-2.3,5.2-5.2c0-2.9-2.3-5.2-5.2-5.2c-2.9,0-5.2,2.3-5.2,5.2
		C895,428.4,897.4,430.7,900.3,430.7z"/>
	<path class="st0" d="M919.4,410.9c2.5,0,4.5-2,4.5-4.5c0-2.5-2-4.5-4.5-4.5c-2.5,0-4.5,2-4.5,4.5
		C914.8,408.9,916.9,410.9,919.4,410.9z"/>
	<path class="st0" d="M938.5,391.1c2.1,0,3.8-1.7,3.8-3.8c0-2.1-1.7-3.8-3.8-3.8s-3.8,1.7-3.8,3.8
		C934.6,389.4,936.4,391.1,938.5,391.1z"/>
	<path class="st0" d="M957.6,371.3c1.7,0,3.1-1.4,3.1-3.1c0-1.7-1.4-3.1-3.1-3.1s-3.1,1.4-3.1,3.1
		C954.4,369.9,955.8,371.3,957.6,371.3z"/>
	<path class="st0" d="M822.6,530.5C822.6,530.5,822.6,530.5,822.6,530.5C822.6,530.5,822.6,530.5,822.6,530.5
		c-5.2,0-9.5,4.3-9.5,9.5s4.3,9.5,9.5,9.5c0,0,0,0,0,0c0,0,0,0,0,0c5.2,0,9.5-4.3,9.5-9.5S827.8,530.5,822.6,530.5z"/>
	<circle class="st0" cx="841.7" cy="520.9" r="8.8"/>
	<path class="st0" d="M860.8,509.9c4.5,0,8.1-3.6,8.1-8.1c0-4.5-3.6-8.1-8.1-8.1c-4.5,0-8.1,3.6-8.1,8.1
		C852.7,506.3,856.3,509.9,860.8,509.9z"/>
	<path class="st0" d="M879.8,490.1c4.1,0,7.4-3.3,7.4-7.4c0-4.1-3.3-7.4-7.4-7.4s-7.4,3.3-7.4,7.4
		C872.5,486.8,875.8,490.1,879.8,490.1z"/>
	<circle class="st0" cx="898.9" cy="463.7" r="6.7"/>
	<circle class="st0" cx="918" cy="444.6" r="6"/>
	<path class="st0" d="M937.1,430.7c2.9,0,5.2-2.3,5.2-5.2c0-2.9-2.3-5.2-5.2-5.2s-5.2,2.3-5.2,5.2
		C931.9,428.4,934.2,430.7,937.1,430.7z"/>
	<path class="st0" d="M956.2,410.9c2.5,0,4.5-2,4.5-4.5c0-2.5-2-4.5-4.5-4.5c-2.5,0-4.5,2-4.5,4.5
		C951.7,408.9,953.7,410.9,956.2,410.9z"/>
	<path class="st0" d="M975.3,391.1c2.1,0,3.8-1.7,3.8-3.8c0-2.1-1.7-3.8-3.8-3.8c-2.1,0-3.8,1.7-3.8,3.8
		C971.5,389.4,973.2,391.1,975.3,391.1z"/>
	<path class="st0" d="M994.4,371.3c1.7,0,3.1-1.4,3.1-3.1c0-1.7-1.4-3.1-3.1-3.1c-1.7,0-3.1,1.4-3.1,3.1
		C991.3,369.9,992.6,371.3,994.4,371.3z"/>
	<path class="st0" d="M859.4,530.5C859.4,530.5,859.4,530.5,859.4,530.5C859.4,530.5,859.4,530.5,859.4,530.5
		c-5.2,0-9.5,4.3-9.5,9.5s4.3,9.5,9.5,9.5c0,0,0,0,0,0s0,0,0,0c5.2,0,9.5-4.3,9.5-9.5S864.6,530.5,859.4,530.5z"/>
	<circle class="st0" cx="878.5" cy="520.9" r="8.8"/>
	<circle class="st0" cx="897.6" cy="501.8" r="8.1"/>
	<path class="st0" d="M916.7,490.1c4.1,0,7.4-3.3,7.4-7.4c0-4.1-3.3-7.4-7.4-7.4s-7.4,3.3-7.4,7.4
		C909.3,486.8,912.6,490.1,916.7,490.1z"/>
	<path class="st0" d="M935.7,470.3c3.7,0,6.7-3,6.7-6.7c0-3.7-3-6.7-6.7-6.7c-3.7,0-6.7,3-6.7,6.7
		C929.1,467.3,932.1,470.3,935.7,470.3z"/>
	<path class="st0" d="M954.8,450.5c3.3,0,6-2.7,6-6c0-3.3-2.7-6-6-6c-3.3,0-6,2.7-6,6C948.9,447.9,951.5,450.5,954.8,450.5z"/>
	<path class="st0" d="M973.9,430.7c2.9,0,5.2-2.3,5.2-5.2c0-2.9-2.3-5.2-5.2-5.2s-5.2,2.3-5.2,5.2
		C968.7,428.4,971,430.7,973.9,430.7z"/>
	<circle class="st0" cx="993" cy="406.4" r="4.5"/>
	<path class="st0" d="M1012.1,391.1c2.1,0,3.8-1.7,3.8-3.8c0-2.1-1.7-3.8-3.8-3.8s-3.8,1.7-3.8,3.8
		C1008.3,389.4,1010,391.1,1012.1,391.1z"/>
	<path class="st0" d="M1031.2,371.3c1.7,0,3.1-1.4,3.1-3.1c0-1.7-1.4-3.1-3.1-3.1c-1.7,0-3.1,1.4-3.1,3.1
		C1028.1,369.9,1029.5,371.3,1031.2,371.3z"/>
	<path class="st0" d="M896.2,530.5C896.2,530.5,896.2,530.5,896.2,530.5C896.2,530.5,896.2,530.5,896.2,530.5
		c-5.2,0-9.5,4.3-9.5,9.5s4.3,9.5,9.5,9.5c0,0,0,0,0,0c0,0,0,0,0,0c5.2,0,9.5-4.3,9.5-9.5S901.5,530.5,896.2,530.5z"/>
	<path class="st0" d="M915.3,529.7c4.9,0,8.8-3.9,8.8-8.8s-3.9-8.8-8.8-8.8s-8.8,3.9-8.8,8.8S910.4,529.7,915.3,529.7z"/>
	<circle class="st0" cx="934.4" cy="501.8" r="8.1"/>
	<circle class="st0" cx="953.5" cy="482.7" r="7.4"/>
	<circle class="st0" cx="972.6" cy="463.7" r="6.7"/>
	<path class="st0" d="M991.6,450.5c3.3,0,6-2.7,6-6c0-3.3-2.7-6-6-6s-6,2.7-6,6C985.7,447.9,988.4,450.5,991.6,450.5z"/>
	<path class="st0" d="M1010.7,430.7c2.9,0,5.2-2.3,5.2-5.2c0-2.9-2.3-5.2-5.2-5.2c-2.9,0-5.2,2.3-5.2,5.2
		C1005.5,428.4,1007.8,430.7,1010.7,430.7z"/>
	<path class="st0" d="M1029.8,410.9c2.5,0,4.5-2,4.5-4.5c0-2.5-2-4.5-4.5-4.5c-2.5,0-4.5,2-4.5,4.5
		C1025.3,408.9,1027.3,410.9,1029.8,410.9z"/>
	<path class="st0" d="M1048.9,391.1c2.1,0,3.8-1.7,3.8-3.8c0-2.1-1.7-3.8-3.8-3.8c-2.1,0-3.8,1.7-3.8,3.8
		C1045.1,389.4,1046.8,391.1,1048.9,391.1z"/>
	<path class="st0" d="M1068,371.3c1.7,0,3.1-1.4,3.1-3.1c0-1.7-1.4-3.1-3.1-3.1c-1.7,0-3.1,1.4-3.1,3.1
		C1064.9,369.9,1066.3,371.3,1068,371.3z"/>
	<path class="st0" d="M933,530.5C933,530.5,933,530.5,933,530.5C933,530.5,933,530.5,933,530.5c-5.2,0-9.5,4.3-9.5,9.5
		s4.3,9.5,9.5,9.5c0,0,0,0,0,0s0,0,0,0c5.2,0,9.5-4.3,9.5-9.5S938.3,530.5,933,530.5z"/>
	<circle class="st0" cx="952.1" cy="520.9" r="8.8"/>
	<path class="st0" d="M971.2,509.9c4.5,0,8.1-3.6,8.1-8.1c0-4.5-3.6-8.1-8.1-8.1s-8.1,3.6-8.1,8.1
		C963.1,506.3,966.7,509.9,971.2,509.9z"/>
	<path class="st0" d="M990.3,490.1c4.1,0,7.4-3.3,7.4-7.4c0-4.1-3.3-7.4-7.4-7.4c-4.1,0-7.4,3.3-7.4,7.4
		C982.9,486.8,986.2,490.1,990.3,490.1z"/>
	<path class="st0" d="M1009.4,470.3c3.7,0,6.7-3,6.7-6.7c0-3.7-3-6.7-6.7-6.7s-6.7,3-6.7,6.7
		C1002.7,467.3,1005.7,470.3,1009.4,470.3z"/>
	<path class="st0" d="M1028.5,450.5c3.3,0,6-2.7,6-6c0-3.3-2.7-6-6-6c-3.3,0-6,2.7-6,6C1022.5,447.9,1025.2,450.5,1028.5,450.5z"/>
	<path class="st0" d="M1047.5,430.7c2.9,0,5.2-2.3,5.2-5.2c0-2.9-2.3-5.2-5.2-5.2c-2.9,0-5.2,2.3-5.2,5.2
		C1042.3,428.4,1044.7,430.7,1047.5,430.7z"/>
	<path class="st0" d="M1066.6,410.9c2.5,0,4.5-2,4.5-4.5c0-2.5-2-4.5-4.5-4.5c-2.5,0-4.5,2-4.5,4.5
		C1062.1,408.9,1064.1,410.9,1066.6,410.9z"/>
	<path class="st0" d="M1085.7,391.1c2.1,0,3.8-1.7,3.8-3.8c0-2.1-1.7-3.8-3.8-3.8c-2.1,0-3.8,1.7-3.8,3.8
		C1081.9,389.4,1083.6,391.1,1085.7,391.1z"/>
	<path class="st0" d="M1104.8,371.3c1.7,0,3.1-1.4,3.1-3.1c0-1.7-1.4-3.1-3.1-3.1c-1.7,0-3.1,1.4-3.1,3.1
		C1101.7,369.9,1103.1,371.3,1104.8,371.3z"/>
	<path class="st0" d="M969.8,530.5C969.8,530.5,969.8,530.5,969.8,530.5C969.8,530.5,969.8,530.5,969.8,530.5
		c-5.2,0-9.5,4.3-9.5,9.5s4.3,9.5,9.5,9.5c0,0,0,0,0,0s0,0,0,0c5.2,0,9.5-4.3,9.5-9.5S975.1,530.5,969.8,530.5z"/>
	<circle class="st0" cx="988.9" cy="520.9" r="8.8"/>
	<circle class="st0" cx="1008" cy="501.8" r="8.1"/>
	<circle class="st0" cx="1027.1" cy="482.7" r="7.4"/>
	<path class="st0" d="M1046.2,457c-3.7,0-6.7,3-6.7,6.7c0,3.7,3,6.7,6.7,6.7c3.7,0,6.7-3,6.7-6.7C1052.8,460,1049.9,457,1046.2,457z
		"/>
	<path class="st0" d="M1065.3,438.6c-3.3,0-6,2.7-6,6c0,3.3,2.7,6,6,6s6-2.7,6-6C1071.2,441.3,1068.6,438.6,1065.3,438.6z"/>
	<path class="st0" d="M1084.4,420.2c-2.9,0-5.2,2.3-5.2,5.2c0,2.9,2.3,5.2,5.2,5.2c2.9,0,5.2-2.3,5.2-5.2
		C1089.6,422.6,1087.3,420.2,1084.4,420.2z"/>
	<path class="st0" d="M1103.4,401.9c-2.5,0-4.5,2-4.5,4.5c0,2.5,2,4.5,4.5,4.5c2.5,0,4.5-2,4.5-4.5
		C1108,403.9,1106,401.9,1103.4,401.9z"/>
	<path class="st0" d="M1122.5,383.5c-2.1,0-3.8,1.7-3.8,3.8c0,2.1,1.7,3.8,3.8,3.8c2.1,0,3.8-1.7,3.8-3.8
		C1126.4,385.2,1124.6,383.5,1122.5,383.5z"/>
	<path class="st0" d="M1141.6,371.3c1.7,0,3.1-1.4,3.1-3.1c0-1.7-1.4-3.1-3.1-3.1c-1.7,0-3.1,1.4-3.1,3.1
		C1138.5,369.9,1139.9,371.3,1141.6,371.3z"/>
	<circle class="st0" cx="804.9" cy="559.1" r="8.8"/>
	<circle class="st0" cx="823.9" cy="578.2" r="8.1"/>
	<path class="st0" d="M843,589.9c-4.1,0-7.4,3.3-7.4,7.4c0,4.1,3.3,7.4,7.4,7.4c4.1,0,7.4-3.3,7.4-7.4
		C850.4,593.2,847.1,589.9,843,589.9z"/>
	<path class="st0" d="M862.1,609.7c-3.7,0-6.7,3-6.7,6.7c0,3.7,3,6.7,6.7,6.7c3.7,0,6.7-3,6.7-6.7
		C868.8,612.7,865.8,609.7,862.1,609.7z"/>
	<path class="st0" d="M881.2,629.5c-3.3,0-6,2.7-6,6c0,3.3,2.7,6,6,6s6-2.7,6-6C887.2,632.1,884.5,629.5,881.2,629.5z"/>
	<path class="st0" d="M900.3,649.3c-2.9,0-5.2,2.3-5.2,5.2c0,2.9,2.3,5.2,5.2,5.2s5.2-2.3,5.2-5.2
		C905.5,651.6,903.2,649.3,900.3,649.3z"/>
	<circle class="st0" cx="919.4" cy="673.6" r="4.5"/>
	<path class="st0" d="M938.5,688.9c-2.1,0-3.8,1.7-3.8,3.8s1.7,3.8,3.8,3.8c2.1,0,3.8-1.7,3.8-3.8S940.6,688.9,938.5,688.9z"/>
	<path class="st0" d="M957.6,708.7c-1.7,0-3.1,1.4-3.1,3.1s1.4,3.1,3.1,3.1c1.7,0,3.1-1.4,3.1-3.1S959.3,708.7,957.6,708.7z"/>
	<circle class="st0" cx="841.7" cy="559.1" r="8.8"/>
	<circle class="st0" cx="860.8" cy="578.2" r="8.1"/>
	<circle class="st0" cx="879.8" cy="597.3" r="7.4"/>
	<path class="st0" d="M898.9,609.7c-3.7,0-6.7,3-6.7,6.7c0,3.7,3,6.7,6.7,6.7s6.7-3,6.7-6.7C905.6,612.7,902.6,609.7,898.9,609.7z"
		/>
	<path class="st0" d="M918,629.5c-3.3,0-6,2.7-6,6c0,3.3,2.7,6,6,6c3.3,0,6-2.7,6-6C924,632.1,921.3,629.5,918,629.5z"/>
	<path class="st0" d="M937.1,649.3c-2.9,0-5.2,2.3-5.2,5.2c0,2.9,2.3,5.2,5.2,5.2c2.9,0,5.2-2.3,5.2-5.2
		C942.3,651.6,940,649.3,937.1,649.3z"/>
	<path class="st0" d="M956.2,669.1c-2.5,0-4.5,2-4.5,4.5c0,2.5,2,4.5,4.5,4.5c2.5,0,4.5-2,4.5-4.5
		C960.7,671.1,958.7,669.1,956.2,669.1z"/>
	<circle class="st0" cx="975.3" cy="692.7" r="3.8"/>
	<path class="st0" d="M994.4,708.7c-1.7,0-3.1,1.4-3.1,3.1s1.4,3.1,3.1,3.1s3.1-1.4,3.1-3.1S996.1,708.7,994.4,708.7z"/>
	<circle class="st0" cx="878.5" cy="559.1" r="8.8"/>
	<path class="st0" d="M897.6,570.1c-4.5,0-8.1,3.6-8.1,8.1s3.6,8.1,8.1,8.1c4.5,0,8.1-3.6,8.1-8.1S902,570.1,897.6,570.1z"/>
	<path class="st0" d="M916.7,589.9c-4.1,0-7.4,3.3-7.4,7.4c0,4.1,3.3,7.4,7.4,7.4s7.4-3.3,7.4-7.4
		C924,593.2,920.7,589.9,916.7,589.9z"/>
	<path class="st0" d="M935.7,609.7c-3.7,0-6.7,3-6.7,6.7c0,3.7,3,6.7,6.7,6.7s6.7-3,6.7-6.7C942.4,612.7,939.4,609.7,935.7,609.7z"
		/>
	<circle class="st0" cx="954.8" cy="635.4" r="6"/>
	<path class="st0" d="M973.9,649.3c-2.9,0-5.2,2.3-5.2,5.2c0,2.9,2.3,5.2,5.2,5.2s5.2-2.3,5.2-5.2
		C979.2,651.6,976.8,649.3,973.9,649.3z"/>
	<path class="st0" d="M993,669.1c-2.5,0-4.5,2-4.5,4.5c0,2.5,2,4.5,4.5,4.5c2.5,0,4.5-2,4.5-4.5C997.5,671.1,995.5,669.1,993,669.1z
		"/>
	<path class="st0" d="M1012.1,688.9c-2.1,0-3.8,1.7-3.8,3.8s1.7,3.8,3.8,3.8c2.1,0,3.8-1.7,3.8-3.8S1014.2,688.9,1012.1,688.9z"/>
	<path class="st0" d="M1031.2,708.7c-1.7,0-3.1,1.4-3.1,3.1s1.4,3.1,3.1,3.1c1.7,0,3.1-1.4,3.1-3.1S1032.9,708.7,1031.2,708.7z"/>
	<circle class="st0" cx="915.3" cy="559.1" r="8.8"/>
	<circle class="st0" cx="934.4" cy="578.2" r="8.1"/>
	<circle class="st0" cx="953.5" cy="597.3" r="7.4"/>
	<path class="st0" d="M972.6,609.7c-3.7,0-6.7,3-6.7,6.7c0,3.7,3,6.7,6.7,6.7c3.7,0,6.7-3,6.7-6.7
		C979.2,612.7,976.2,609.7,972.6,609.7z"/>
	<path class="st0" d="M991.6,629.5c-3.3,0-6,2.7-6,6c0,3.3,2.7,6,6,6c3.3,0,6-2.7,6-6C997.6,632.1,994.9,629.5,991.6,629.5z"/>
	<path class="st0" d="M1010.7,649.3c-2.9,0-5.2,2.3-5.2,5.2c0,2.9,2.3,5.2,5.2,5.2c2.9,0,5.2-2.3,5.2-5.2
		C1016,651.6,1013.6,649.3,1010.7,649.3z"/>
	<path class="st0" d="M1029.8,669.1c-2.5,0-4.5,2-4.5,4.5c0,2.5,2,4.5,4.5,4.5c2.5,0,4.5-2,4.5-4.5
		C1034.4,671.1,1032.3,669.1,1029.8,669.1z"/>
	<circle class="st0" cx="1048.9" cy="692.7" r="3.8"/>
	<path class="st0" d="M1068,708.7c-1.7,0-3.1,1.4-3.1,3.1s1.4,3.1,3.1,3.1c1.7,0,3.1-1.4,3.1-3.1S1069.7,708.7,1068,708.7z"/>
	<path class="st0" d="M952.1,550.3c-4.9,0-8.8,3.9-8.8,8.8s3.9,8.8,8.8,8.8c4.9,0,8.8-3.9,8.8-8.8S957,550.3,952.1,550.3z"/>
	<circle class="st0" cx="971.2" cy="578.2" r="8.1"/>
	<circle class="st0" cx="990.3" cy="597.3" r="7.4"/>
	<circle class="st0" cx="1009.4" cy="616.3" r="6.7"/>
	<path class="st0" d="M1028.5,629.5c-3.3,0-6,2.7-6,6c0,3.3,2.7,6,6,6c3.3,0,6-2.7,6-6C1034.4,632.1,1031.7,629.5,1028.5,629.5z"/>
	<path class="st0" d="M1047.5,649.3c-2.9,0-5.2,2.3-5.2,5.2c0,2.9,2.3,5.2,5.2,5.2s5.2-2.3,5.2-5.2
		C1052.8,651.6,1050.4,649.3,1047.5,649.3z"/>
	<path class="st0" d="M1066.6,669.1c-2.5,0-4.5,2-4.5,4.5c0,2.5,2,4.5,4.5,4.5c2.5,0,4.5-2,4.5-4.5
		C1071.2,671.1,1069.1,669.1,1066.6,669.1z"/>
	<path class="st0" d="M1085.7,688.9c-2.1,0-3.8,1.7-3.8,3.8s1.7,3.8,3.8,3.8c2.1,0,3.8-1.7,3.8-3.8S1087.8,688.9,1085.7,688.9z"/>
	<path class="st0" d="M1104.8,708.7c-1.7,0-3.1,1.4-3.1,3.1s1.4,3.1,3.1,3.1c1.7,0,3.1-1.4,3.1-3.1S1106.5,708.7,1104.8,708.7z"/>
	<circle class="st0" cx="988.9" cy="559.1" r="8.8"/>
	<circle class="st0" cx="1008" cy="578.2" r="8.1"/>
	<path class="st0" d="M1027.1,589.9c-4.1,0-7.4,3.3-7.4,7.4c0,4.1,3.3,7.4,7.4,7.4c4.1,0,7.4-3.3,7.4-7.4
		C1034.5,593.2,1031.2,589.9,1027.1,589.9z"/>
	<path class="st0" d="M1046.2,609.7c-3.7,0-6.7,3-6.7,6.7c0,3.7,3,6.7,6.7,6.7c3.7,0,6.7-3,6.7-6.7
		C1052.8,612.7,1049.9,609.7,1046.2,609.7z"/>
	<path class="st0" d="M1065.3,629.5c-3.3,0-6,2.7-6,6c0,3.3,2.7,6,6,6c3.3,0,6-2.7,6-6C1071.2,632.1,1068.6,629.5,1065.3,629.5z"/>
	<path class="st0" d="M1084.4,649.3c-2.9,0-5.2,2.3-5.2,5.2c0,2.9,2.3,5.2,5.2,5.2c2.9,0,5.2-2.3,5.2-5.2
		C1089.6,651.6,1087.3,649.3,1084.4,649.3z"/>
	<path class="st0" d="M1103.4,669.1c-2.5,0-4.5,2-4.5,4.5c0,2.5,2,4.5,4.5,4.5c2.5,0,4.5-2,4.5-4.5
		C1108,671.1,1106,669.1,1103.4,669.1z"/>
	<path class="st0" d="M1122.5,688.9c-2.1,0-3.8,1.7-3.8,3.8s1.7,3.8,3.8,3.8c2.1,0,3.8-1.7,3.8-3.8S1124.6,688.9,1122.5,688.9z"/>
	<path class="st0" d="M1141.6,708.7c-1.7,0-3.1,1.4-3.1,3.1s1.4,3.1,3.1,3.1c1.7,0,3.1-1.4,3.1-3.1S1143.3,708.7,1141.6,708.7z"/>
</g>
</svg>
