<?xml version="1.0" encoding="utf-8"?>
<!-- Generator: Adobe Illustrator 27.5.0, SVG Export Plug-In . SVG Version: 6.00 Build 0)  -->
<svg version="1.1" id="Ebene_2" xmlns="http://www.w3.org/2000/svg" xmlns:xlink="http://www.w3.org/1999/xlink" x="0px" y="0px"
	 viewBox="0 0 841.9 595.3" style="enable-background:new 0 0 841.9 595.3;" xml:space="preserve">
<style type="text/css">
	.st0{fill:#FFFFFF;}
</style>
<g>
	<path class="st0" d="M795.1,326.5v-4.7l-0.3-0.1c-9-5.1-18.7-16.5-26.2-30.6c-3.7-7.1-6.7-14.5-8.5-21.4l-0.1-0.3l-0.2-0.1
		c-7.4-4.7-16.2-14.8-23.6-27c-3.7-6.2-6.9-12.6-9.1-18.5l0,0c-2.1-7.4-7.1-12.9-13-14.4v-4.4c0-1.7-1.3-3.1-2.9-3.3
		c-0.2-4.1-3.6-7.4-7.8-7.4c-4.2,0-7.6,3.3-7.8,7.4c-1.6,0.2-2.9,1.6-2.9,3.3v4.4c-5.9,1.5-10.8,7-13,14.4l0,0
		c-2.2,5.9-5.4,12.3-9.1,18.5c-7.4,12.3-16.2,22.4-23.7,27.1l-0.2,0.2v0.1l-0.3,0.2l-2.3,7.3h0.2c-0.9,2.5-2,5.1-3.3,7.8H511H390.4
		H260.2c-1.3-2.7-2.4-5.3-3.3-7.8h0.2l-2.3-7.3l-0.3-0.2v-0.1l-0.2-0.1c-7.4-4.7-16.3-14.8-23.7-27.1c-3.7-6.2-6.9-12.6-9.1-18.5
		l0,0c-2.1-7.4-7.1-12.9-13-14.4v-4.4c0-1.7-1.3-3.1-2.9-3.3c-0.2-4.1-3.6-7.4-7.8-7.4s-7.6,3.3-7.8,7.4c-1.6,0.2-2.9,1.6-2.9,3.3
		v4.4c-5.9,1.5-10.8,7-13,14.4l0,0c-2.2,5.9-5.4,12.4-9.1,18.5c-7.4,12.2-16.2,22.3-23.6,27l-0.2,0.1l-0.1,0.3
		c-1.8,6.9-4.8,14.3-8.5,21.4c-7.4,14.1-17.2,25.5-26.2,30.6l-0.3,0.1v4.7h-3v9.5h3.1v4h3.5v184.4h-0.2v3h176.5v-1h0v-10.2h329.1
		v8.2h-0.1v3h176.5v-3h-0.1V340h3.5v-4h3.1v-9.5H795.1z M658.2,277.2v-7.3H654l-2.5-2.4c6.6-5.4,13.9-14.2,20.1-24.6
		c3.8-6.2,6.9-12.7,9.2-18.7l-0.4-0.1l0.3,0.1c1.6-5.6,4.9-10.1,9-12.4l2.9,2.9h21.2l3.1-3.1c4.2,2.3,7.6,6.8,9.2,12.5l0.5-0.1
		l-0.5,0.2c2.3,6,5.4,12.5,9.2,18.7c6.3,10.4,13.6,19.3,20.2,24.7l-0.6-0.4l-2.7,2.7H748v7.3h13.4c1.7,4.8,3.8,9.7,6.3,14.4
		c6.2,11.8,14.1,21.7,21.8,27.7l-2.6,2.8h-5.1v5h5v8.6h-3.9v3.9h-1.1v5h8.8v30.5h-8.7v4h2.4v3.9h6.3v39.5h-8.7v4h8.7v20.5h-93.8
		v-3.8h-4c-0.1-1.1-0.5-2.6-1.3-3.6c-0.9-1-1.8-1.2-2.5-1.4c-0.5-0.1-0.6-0.2-0.7-0.3c-0.3-0.4-0.3-0.8-0.3-0.8l0-2.2h0v-1.5h-6.6
		v-23.3h2.3v-9.4h-9.4v2.4h-12.2v-2.4h-9.4v9.4h2.1v23.3h-6.3v1.5h0l0,2.2c0,0,0,0.5-0.3,0.9c-0.1,0.1-0.2,0.2-0.7,0.3
		c-0.6,0.2-1.6,0.4-2.5,1.4c-0.9,1-1.2,2.5-1.3,3.6h-4v3.8h-23.4v-20.5h8.8v-4h-8.8v-34.8h8.8v-4h-8.8v-27.6h6.4v-3.9h2.4v-4h-8.8
		v-3.6h8.8v-5H624v-3.9h-3.9v-8.6h5v-5H620l-3-2.6c7.8-6,15.8-16.1,22.1-28c2.7-5.1,4.9-9.9,6.5-14.4H658.2z M656.9,416h10.7v16.1
		h-10.7V416z M668.6,416h10.8v16.1h-10.8V416z M679.4,405.2v9.8h-10.8v-9.8H679.4z M667.6,415h-10.7v-9.8h10.7V415z M286.2,346.6
		h329.1v100.4H286.2V346.6z M350.5,494h-10.1v-16.4h10.1V494z M339.4,494h-10.1v-16.4h10.1V494z M350.5,475.7h-10.1v-7.2h10.1V475.7
		z M339.4,475.7h-10.1v-7.2h10.1V475.7z M572.1,494h-10.1v-16.4h10.1V494z M561.1,494H551v-16.4h10.1V494z M572.1,475.7h-10.1v-7.2
		h10.1V475.7z M561.1,475.7H551v-7.2h10.1V475.7z M615.3,513.2h-40.1v-47.7H548v47.7H353.5v-47.7h-27.2v47.7h-40.1v-64.1h329.1
		V513.2z M390.4,286H511h129.8c-0.8,1.7-1.7,3.4-2.6,5.1c-7.4,14.1-17.2,25.5-26.2,30.6l-0.3,0.1v4.7h-3v9.5h3.1v4h3.5v5.6H286.2
		V340h3.5v-4h3.1v-9.5h-3v-4.7l-0.3-0.1c-9-5.1-18.7-16.5-26.2-30.6c-0.9-1.7-1.8-3.5-2.6-5.1H390.4z M133.7,291.6
		c2.5-4.7,4.6-9.6,6.3-14.4h13.4v-7.3h-4.2l-2.7-2.7l-0.6,0.4c6.6-5.4,14-14.3,20.2-24.7c3.8-6.2,6.9-12.7,9.2-18.7l-0.5-0.2
		l0.5,0.1c1.6-5.7,5-10.2,9.2-12.5l3.1,3.1h21.2l2.9-2.9c4.1,2.3,7.4,6.7,9,12.4l0.3-0.1l-0.4,0.1c2.3,6,5.4,12.5,9.2,18.7
		c6.2,10.3,13.5,19.2,20.1,24.6l-2.5,2.4h-4.2v7.3h12.6c1.7,4.5,3.8,9.3,6.5,14.4c6.3,11.9,14.3,22,22.1,28l-3,2.6h-5.1v5h5v8.6
		h-3.9v3.9h-1.1v5h8.8v3.6h-8.8v4h2.4v3.9h6.4v27.6h-8.8v4h8.8v34.8h-8.8v4h8.8v20.5h-23.4v-3.8h-4c-0.1-1.1-0.5-2.6-1.3-3.6
		c-0.9-1-1.8-1.2-2.5-1.4c-0.5-0.1-0.6-0.2-0.7-0.3c-0.3-0.4-0.3-0.8-0.3-0.8l0-2.2h0v-1.5h-6.4v-23.3h2.1v-9.4h-9.4v2.4h-12.2v-2.4
		h-9.4v9.4h2.3v23.3h-6.6v1.5h0l0,2.2c0,0,0,0.5-0.3,0.9c-0.1,0.1-0.2,0.2-0.7,0.3c-0.6,0.2-1.6,0.4-2.5,1.4c-0.9,1-1.2,2.5-1.3,3.6
		h-4v3.8h-93.8v-20.5h8.7v-4h-8.7v-39.5h6.3v-3.9h2.4v-4h-8.7v-30.5h8.8v-5h-1.1v-3.9h-3.9v-8.6h5v-5h-5.1l-2.6-2.8
		C119.6,313.3,127.4,303.3,133.7,291.6z M222,416h10.8v16.1H222V416z M233.9,416h10.7v16.1h-10.7V416z M244.6,405.2v9.8h-10.7v-9.8
		H244.6z M232.9,415H222v-9.8h10.8V415z M285.2,524.4H110.9v-75.3h95.3v0h1.5v-2.8l4,0l0-1.5c0-1,0.2-2.5,0.6-3.1
		c0.3-0.3,0.5-0.4,1-0.5c0.7-0.2,1.5-0.4,2.3-1.3c0.9-1.2,1-2.5,0.9-2.8v-0.6h33.5v0.6c0,0.3,0,1.7,0.9,2.8c0.7,0.9,1.6,1.2,2.3,1.3
		c0.5,0.1,0.7,0.2,1,0.5c0.5,0.5,0.7,2.1,0.6,3l-0.1,1.5h4v2.8h1.5v0h24.9v64.1h-0.1v3h0.1V524.4z M616.3,524.4v-75.3h24.9v0h1.5
		v-2.8l4,0l0-1.5c0-1,0.2-2.5,0.6-3.1c0.3-0.3,0.5-0.4,1-0.5c0.7-0.2,1.5-0.4,2.3-1.3c0.9-1.2,1-2.5,0.9-2.8v-0.6H685v0.6
		c0,0.3,0,1.7,0.9,2.8c0.7,0.9,1.6,1.2,2.3,1.3c0.5,0.1,0.7,0.2,1,0.5c0.5,0.5,0.7,2.1,0.6,3l-0.1,1.5h4v2.8h1.5v0h95.3v75.3H616.3z
		"/>
	<path class="st0" d="M662.1,374.6h12.2v2.4h9.4v-9.4h-2.3v-15h2.3v-9.4h-9.4v2.4h-12.2v-2.4h-9.4v9.4h2.1v15h-2.1v9.4h9.4V374.6z
		 M656.9,358.4h10.7v14.2h-10.7V358.4z M668.6,358.4h10.8v14.2h-10.8V358.4z M679.4,357.4h-10.8v-9.8h10.8V357.4z M667.6,357.4
		h-10.7v-9.8h10.7V357.4z"/>
	<path class="st0" d="M605.9,366.1v-9.4h-9.4v2.4h-12.2v-2.4H575v9.4h2.1v15H575v9.4h9.4V388h12.2v2.4h9.4v-9.4h-2.3v-15H605.9z
		 M601.6,370.9h-10.8v-9.8h10.8V370.9z M589.8,370.9h-10.7v-9.8h10.7V370.9z M579.1,371.9h10.7V386h-10.7V371.9z M590.8,371.9h10.8
		V386h-10.8V371.9z"/>
	<path class="st0" d="M552.2,359.1H540v-2.4h-9.4v9.4h2.1v15h-2.1v9.4h9.4V388h12.2v2.4h9.4v-9.4h-2.3v-15h2.3v-9.4h-9.4V359.1z
		 M557.2,370.9h-6.7v-9.8h6.7V370.9z M549.6,370.9h-7.2v-9.8h7.2V370.9z M541.4,370.9h-6.7v-9.8h6.7V370.9z M534.7,371.9h6.7V386
		h-6.7V371.9z M542.4,371.9h7.2V386h-7.2V371.9z M550.6,371.9h6.7V386h-6.7V371.9z"/>
	<path class="st0" d="M608.1,479.4c0-7-5.7-12.8-12.8-12.8s-12.8,5.7-12.8,12.8v15.2h25.5V479.4z M606.7,476.2h-10.3v-8.5
		C601.3,468.1,605.4,471.5,606.7,476.2z M594.4,467.6v8.5h-10.3C585.4,471.5,589.4,468.1,594.4,467.6z M583.6,479.4
		c0-0.7,0.1-1.5,0.2-2.2h10.5v16.4h-10.8V479.4z M607.1,493.5h-10.8v-16.4h10.5c0.1,0.7,0.2,1.4,0.2,2.2V493.5z"/>
	<path class="st0" d="M596.5,410.1h-12.2v-2.4H575v9.4h2.1v15H575v9.4h9.4V439h12.2v2.4h9.4v-9.4h-2.3v-15h2.3v-9.4h-9.4V410.1z
		 M601.6,421.8h-10.8v-9.8h10.8V421.8z M589.8,421.8h-10.7v-9.8h10.7V421.8z M579.1,422.8h10.7V437h-10.7V422.8z M590.8,422.8h10.8
		V437h-10.8V422.8z"/>
	<path class="st0" d="M552.2,410.1H540v-2.4h-9.4v9.4h2.1v15h-2.1v9.4h9.4V439h12.2v2.4h9.4v-9.4h-2.3v-15h2.3v-9.4h-9.4V410.1z
		 M557.2,421.8h-6.7v-9.8h6.7V421.8z M549.6,421.8h-7.2v-9.8h7.2V421.8z M541.4,421.8h-6.7v-9.8h6.7V421.8z M534.7,422.8h6.7V437
		h-6.7V422.8z M542.4,422.8h7.2V437h-7.2V422.8z M550.6,422.8h6.7V437h-6.7V422.8z"/>
	<path class="st0" d="M476.2,359.1H464v-2.4h-9.4v9.4h2.1v15h-2.1v9.4h9.4V388h12.2v2.4h9.4v-9.4h-2.3v-15h2.3v-9.4h-9.4V359.1z
		 M481.2,370.9h-6.7v-9.8h6.7V370.9z M473.5,370.9h-7.2v-9.8h7.2V370.9z M465.4,370.9h-6.7v-9.8h6.7V370.9z M458.7,371.9h6.7V386
		h-6.7V371.9z M466.4,371.9h7.2V386h-7.2V371.9z M474.5,371.9h6.7V386h-6.7V371.9z"/>
	<path class="st0" d="M476.2,410.1H464v-2.4h-9.4v9.4h2.1v15h-2.1v9.4h9.4V439h12.2v2.4h9.4v-9.4h-2.3v-15h2.3v-9.4h-9.4V410.1z
		 M481.2,421.8h-6.7v-9.8h6.7V421.8z M473.5,421.8h-7.2v-9.8h7.2V421.8z M465.4,421.8h-6.7v-9.8h6.7V421.8z M458.7,422.8h6.7V437
		h-6.7V422.8z M466.4,422.8h7.2V437h-7.2V422.8z M474.5,422.8h6.7V437h-6.7V422.8z"/>
	<path class="st0" d="M734,345.6v-2.4h-9.4v9.4h2.1v15h-2.1v9.4h9.4v-2.4h12.2v2.4h9.4v-9.4h-2.3v-15h2.3v-9.4h-9.4v2.4H734z
		 M751.3,357.4h-10.8v-9.8h10.8V357.4z M739.4,357.4h-10.7v-9.8h10.7V357.4z M728.7,358.4h10.7v14.2h-10.7V358.4z M740.4,358.4h10.8
		v14.2h-10.8V358.4z"/>
	<path class="st0" d="M746.2,403.2H734v-2.4h-9.4v9.4h2.1v23.9h26.5v-23.9h2.3v-9.4h-9.4V403.2z M751.3,415h-10.8v-9.8h10.8V415z
		 M728.7,405.2h10.7v9.8h-10.7V405.2z M728.7,416h10.7v16.1h-10.7V416z M740.4,432.1V416h10.8v16.1H740.4z"/>
	<path class="st0" d="M729,318.3h9.4v-9.4h-3V299h3v-9.4H729h-50.1h-9.4v9.4h2.2v9.9h-2.2v9.4h9.4H729z M688,293.3v8.3h-7.2v-8.3
		H688z M689,295.6h6.7v16.8H689V295.6z M718.1,312.4h-6.7v-16.8h6.7V312.4z M696.7,314.7v-21.4h13.6v21.4H696.7z M719.1,302.6h7.1
		v12h-7.1V302.6z M719.1,301.6v-8.3h7.1v8.3H719.1z M727.2,302.6h7.2v12h-7.2V302.6z M734.3,301.6h-7.2v-8.3h7.2V301.6z M688,302.6
		v12h-7.2v-12H688z M672.7,293.3h7.1v8.3h-7.1V293.3z M672.7,302.6h7.1v12h-7.1V302.6z"/>
	<path class="st0" d="M758.5,476.2c-0.2-4.4-3.3-8.2-7.9-10.4v-0.1h-0.3c-2.5-1.1-5.4-1.8-8.5-1.8c-3.1,0-6,0.7-8.5,1.8h-0.3v0.1
		c-4.6,2.2-7.7,6-7.9,10.4h0v21.1h33.4L758.5,476.2L758.5,476.2z M757.5,476.2h-6.9v-9.3C754.7,468.9,757.3,472.3,757.5,476.2z
		 M747.6,465.7v10.5h-11.5v-10.5c1.8-0.5,3.7-0.8,5.8-0.8C743.9,464.9,745.9,465.2,747.6,465.7z M747.6,477.2v19.1h-11.5v-19.1
		H747.6z M733.1,466.9v9.3h-6.9C726.4,472.3,729.1,468.9,733.1,466.9z M726.2,477.2h6.9v19.1h-6.9V477.2z M757.6,496.3h-6.9v-19.1
		h6.9V496.3z"/>
	<path class="st0" d="M693.9,470.8c-2.8-2.7-6.6-4.9-11-6.4v-0.1h-0.3c-4.1-1.3-8.7-2-13.5-2c-10.2,0-19.4,3.2-24.8,8.5l0.3,0.3
		h-0.5v5v0.5v20.6h49.9v-20.6v-0.5v-5h-0.5L693.9,470.8z M680,464.6v11.6h-21.1v-11.7c3.2-0.8,6.7-1.2,10.3-1.2
		C672.9,463.3,676.6,463.8,680,464.6z M680,477.2v19.1h-21.1v-19.1H680z M645.2,471.4c2.7-2.6,6.4-4.7,10.6-6.1v10.9h-10.6V471.4z
		 M645.2,477.2h10.6v19.1h-10.6V477.2z M693.1,496.3H683v-19.1h10.1V496.3z M683,476.2v-10.7c4.1,1.4,7.5,3.4,10.1,5.9v4.8H683z"/>
	<path class="st0" d="M489,476.2L489,476.2c-0.3-4.4-3.4-8.2-7.9-10.4v-0.1h-0.3c-2.5-1.1-5.4-1.8-8.5-1.8c-3.1,0-6,0.7-8.5,1.8
		h-0.3v0.1c-4.6,2.2-7.7,6-7.9,10.4h0v21.1H489V476.2z M488,476.2h-6.9v-9.3C485.1,468.9,487.8,472.3,488,476.2z M478.1,465.7v10.5
		h-11.5v-10.5c1.8-0.5,3.7-0.8,5.8-0.8C474.3,464.9,476.3,465.2,478.1,465.7z M478.1,477.2v19.1h-11.5v-19.1H478.1z M463.5,466.9
		v9.3h-6.9C456.9,472.3,459.5,468.9,463.5,466.9z M456.6,477.2h6.9v19.1h-6.9V477.2z M488,496.3h-6.9v-19.1h6.9V496.3z"/>
	<path class="st0" d="M426.4,359.1h-12.2v-2.4h-9.4v9.4h2.1v15h-2.1v9.4h9.4V388h12.2v2.4h9.4v-9.4h-2.3v-15h2.3v-9.4h-9.4V359.1z
		 M431.4,370.9h-10.8v-9.8h10.8V370.9z M419.6,370.9h-10.7v-9.8h10.7V370.9z M408.9,371.9h10.7V386h-10.7V371.9z M420.6,371.9h10.8
		V386h-10.8V371.9z"/>
	<path class="st0" d="M438,479.4c0-7-5.7-12.8-12.8-12.8c-7,0-12.8,5.7-12.8,12.8v15.2H438V479.4z M436.6,476.2h-10.3v-8.5
		C431.2,468.1,435.2,471.5,436.6,476.2z M424.2,467.6v8.5h-10.3C415.2,471.5,419.3,468.1,424.2,467.6z M413.5,479.4
		c0-0.7,0.1-1.5,0.2-2.2h10.5v16.4h-10.8V479.4z M437,493.5h-10.8v-16.4h10.5c0.1,0.7,0.2,1.4,0.2,2.2V493.5z"/>
	<path class="st0" d="M426.4,410.1h-12.2v-2.4h-9.4v9.4h2.1v15h-2.1v9.4h9.4V439h12.2v2.4h9.4v-9.4h-2.3v-15h2.3v-9.4h-9.4V410.1z
		 M431.4,421.8h-10.8v-9.8h10.8V421.8z M419.6,421.8h-10.7v-9.8h10.7V421.8z M408.9,422.8h10.7V437h-10.7V422.8z M420.6,422.8h10.8
		V437h-10.8V422.8z"/>
	<path class="st0" d="M544.9,468.6h-11.7v23.8h11.7V468.6z M543.9,469.6v6.6h-9.7v-6.6H543.9z M534.2,491.4v-14.3h9.7v14.3H534.2z"
		/>
	<rect x="701.1" y="231.6" class="st0" width="4.9" height="12.4"/>
	<path class="st0" d="M227.1,345.6v-2.4h-9.4v9.4h2.3v15h-2.3v9.4h9.4v-2.4h12.2v2.4h9.4v-9.4h-2.1v-15h2.1v-9.4h-9.4v2.4H227.1z
		 M244.6,357.4h-10.7v-9.8h10.7V357.4z M232.9,357.4H222v-9.8h10.8V357.4z M222,358.4h10.8v14.2H222V358.4z M233.9,358.4h10.7v14.2
		h-10.7V358.4z"/>
	<path class="st0" d="M317.1,359.1h-12.2v-2.4h-9.4v9.4h2.3v15h-2.3v9.4h9.4V388h12.2v2.4h9.4v-9.4h-2.1v-15h2.1v-9.4h-9.4V359.1z
		 M322.4,370.9h-10.7v-9.8h10.7V370.9z M310.7,370.9h-10.8v-9.8h10.8V370.9z M299.9,371.9h10.8V386h-10.8V371.9z M311.7,371.9h10.7
		V386h-10.7V371.9z"/>
	<path class="st0" d="M349.2,356.7h-9.4v9.4h2.3v15h-2.3v9.4h9.4V388h19.5v-28.9h-19.5V356.7z M344.2,371.9h6.7V386h-6.7V371.9z
		 M344.2,370.9v-9.8h6.7v9.8H344.2z M351.9,386v-14.2h14.8V386H351.9z M366.7,370.9h-14.8v-9.8h14.8V370.9z"/>
	<path class="st0" d="M318.8,494.5v-15.2c0-7-5.7-12.8-12.8-12.8c-7,0-12.8,5.7-12.8,12.8v15.2H318.8z M294.3,479.4
		c0-0.7,0.1-1.5,0.2-2.2h10.5v16.4h-10.8V479.4z M317.8,493.5h-10.8v-16.4h10.5c0.1,0.7,0.2,1.4,0.2,2.2V493.5z M317.4,476.2h-10.3
		v-8.5C312,468.1,316.1,471.5,317.4,476.2z M305.1,467.6v8.5h-10.3C296.1,471.5,300.1,468.1,305.1,467.6z"/>
	<path class="st0" d="M317.1,410.1h-12.2v-2.4h-9.4v9.4h2.3v15h-2.3v9.4h9.4V439h12.2v2.4h9.4v-9.4h-2.1v-15h2.1v-9.4h-9.4V410.1z
		 M322.4,421.8h-10.7v-9.8h10.7V421.8z M310.7,421.8h-10.8v-9.8h10.8V421.8z M299.9,422.8h10.8V437h-10.8V422.8z M311.7,422.8h10.7
		V437h-10.7V422.8z"/>
	<path class="st0" d="M349.2,407.7h-9.4v9.4h2.3v15h-2.3v9.4h9.4V439h19.5v-28.9h-19.5V407.7z M344.2,422.8h6.7V437h-6.7V422.8z
		 M344.2,421.8v-9.8h6.7v9.8H344.2z M351.9,437v-14.2h14.8V437H351.9z M366.7,421.8h-14.8v-9.8h14.8V421.8z"/>
	<path class="st0" d="M155.2,374.6h12.2v2.4h9.4v-9.4h-2.1v-15h2.1v-9.4h-9.4v2.4h-12.2v-2.4h-9.4v9.4h2.3v15h-2.3v9.4h9.4V374.6z
		 M150.2,358.4H161v14.2h-10.8V358.4z M162,358.4h10.7v14.2H162V358.4z M172.7,357.4H162v-9.8h10.7V357.4z M161,357.4h-10.8v-9.8
		H161V357.4z"/>
	<path class="st0" d="M148.2,434.1h26.5v-23.9h2.1v-9.4h-9.4v2.4h-12.2v-2.4h-9.4v9.4h2.3V434.1z M172.7,415H162v-9.8h10.7V415z
		 M161,415h-10.8v-9.8H161V415z M150.2,416H161v16.1h-10.8V416z M162,432.1V416h10.7v16.1H162z"/>
	<path class="st0" d="M222.5,318.3h9.4v-9.4h-2.2V299h2.2v-9.4h-9.4h-50.1h-9.4v9.4h3v9.9h-3v9.4h9.4H222.5z M183.4,295.6h6.7v16.8
		h-6.7V295.6z M213.4,314.6v-12h7.2v12H213.4z M212.4,312.4h-6.7v-16.8h6.7V312.4z M191.1,314.7v-21.4h13.6v21.4H191.1z
		 M213.4,301.6v-8.3h7.2v8.3H213.4z M182.4,301.6h-7.1v-8.3h7.1V301.6z M182.4,302.6v12h-7.1v-12H182.4z M174.3,301.6h-7.2v-8.3h7.2
		V301.6z M167.1,302.6h7.2v12h-7.2V302.6z M228.7,314.6h-7.1v-12h7.1V314.6z M228.7,301.6h-7.1v-8.3h7.1V301.6z"/>
	<path class="st0" d="M257.1,470.8c-5.4-5.3-14.6-8.5-24.8-8.5c-4.8,0-9.4,0.7-13.5,2h-0.3v0.1c-4.4,1.5-8.2,3.6-11,6.4l0.3,0.3
		h-0.5v5v0.5v20.6h49.9v-20.6v-0.5v-5h-0.5L257.1,470.8z M242.6,464.5v11.7h-21.1v-11.6c3.4-0.8,7-1.3,10.8-1.3
		C235.9,463.3,239.4,463.7,242.6,464.5z M242.6,477.2v19.1h-21.1v-19.1H242.6z M208.3,471.4c2.6-2.5,6.1-4.5,10.1-5.9v10.7h-10.1
		V471.4z M208.3,477.2h10.1v19.1h-10.1V477.2z M256.2,496.3h-10.6v-19.1h10.6V496.3z M245.6,476.2v-10.9c4.3,1.4,8,3.4,10.6,6.1v4.8
		H245.6z"/>
	<path class="st0" d="M168.3,465.8v-0.1H168c-2.5-1.1-5.4-1.8-8.5-1.8c-3.1,0-6,0.7-8.5,1.8h-0.3v0.1c-4.6,2.2-7.7,6-7.9,10.4h0
		v21.1h33.4v-21.1h0C176,471.8,172.9,468,168.3,465.8z M175.2,476.2h-6.9v-9.3C172.3,468.9,175,472.3,175.2,476.2z M165.3,465.7
		v10.5h-11.5v-10.5c1.8-0.5,3.7-0.8,5.8-0.8C161.6,464.9,163.5,465.2,165.3,465.7z M165.3,477.2v19.1h-11.5v-19.1H165.3z
		 M150.8,466.9v9.3h-6.9C144.1,472.3,146.8,468.9,150.8,466.9z M143.8,477.2h6.9v19.1h-6.9V477.2z M175.2,496.3h-6.9v-19.1h6.9
		V496.3z"/>
	<path class="st0" d="M368.2,468.6h-11.7v23.8h11.7V468.6z M367.2,469.6v6.6h-9.7v-6.6H367.2z M357.5,491.4v-14.3h9.7v14.3H357.5z"
		/>
	<rect x="195.5" y="231.6" class="st0" width="4.9" height="12.4"/>
</g>
</svg>
