<?xml version="1.0" encoding="utf-8"?>
<!-- Generator: Adobe Illustrator 27.5.0, SVG Export Plug-In . SVG Version: 6.00 Build 0)  -->
<svg version="1.1" id="Ebene_1" xmlns="http://www.w3.org/2000/svg" xmlns:xlink="http://www.w3.org/1999/xlink" x="0px" y="0px"
	 viewBox="0 0 1920 1080" style="enable-background:new 0 0 1920 1080;" xml:space="preserve">
<style type="text/css">
	.st0{fill:#3C3C3B;}
</style>
<g>
	<path class="st0" d="M1135.2,549.5C1135.2,549.5,1135.2,549.5,1135.2,549.5C1135.2,549.5,1135.2,549.5,1135.2,549.5
		c5.2,0,9.5-4.3,9.5-9.5s-4.3-9.5-9.5-9.5c0,0,0,0,0,0c0,0,0,0,0,0c-5.2,0-9.5,4.3-9.5,9.5S1130,549.5,1135.2,549.5z"/>
	<circle class="st0" cx="1116.1" cy="559.1" r="8.8"/>
	<circle class="st0" cx="1097.1" cy="578.2" r="8.1"/>
	<circle class="st0" cx="1078" cy="597.3" r="7.4"/>
	<path class="st0" d="M1058.9,609.7c-3.7,0-6.7,3-6.7,6.7c0,3.7,3,6.7,6.7,6.7c3.7,0,6.7-3,6.7-6.7
		C1065.5,612.7,1062.6,609.7,1058.9,609.7z"/>
	<path class="st0" d="M1039.8,629.5c-3.3,0-6,2.7-6,6c0,3.3,2.7,6,6,6c3.3,0,6-2.7,6-6C1045.7,632.1,1043.1,629.5,1039.8,629.5z"/>
	<path class="st0" d="M1020.7,649.3c-2.9,0-5.2,2.3-5.2,5.2c0,2.9,2.3,5.2,5.2,5.2c2.9,0,5.2-2.3,5.2-5.2
		C1026,651.6,1023.6,649.3,1020.7,649.3z"/>
	<path class="st0" d="M1001.6,669.1c-2.5,0-4.5,2-4.5,4.5c0,2.5,2,4.5,4.5,4.5c2.5,0,4.5-2,4.5-4.5
		C1006.2,671.1,1004.1,669.1,1001.6,669.1z"/>
	<path class="st0" d="M982.5,688.9c-2.1,0-3.8,1.7-3.8,3.8c0,2.1,1.7,3.8,3.8,3.8s3.8-1.7,3.8-3.8
		C986.4,690.6,984.6,688.9,982.5,688.9z"/>
	<path class="st0" d="M963.4,708.7c-1.7,0-3.1,1.4-3.1,3.1c0,1.7,1.4,3.1,3.1,3.1s3.1-1.4,3.1-3.1
		C966.6,710.1,965.2,708.7,963.4,708.7z"/>
	<path class="st0" d="M1098.4,549.5C1098.4,549.5,1098.4,549.5,1098.4,549.5C1098.4,549.5,1098.4,549.5,1098.4,549.5
		c5.2,0,9.5-4.3,9.5-9.5s-4.3-9.5-9.5-9.5c0,0,0,0,0,0c0,0,0,0,0,0c-5.2,0-9.5,4.3-9.5,9.5S1093.2,549.5,1098.4,549.5z"/>
	<circle class="st0" cx="1079.3" cy="559.1" r="8.8"/>
	<path class="st0" d="M1060.2,570.1c-4.5,0-8.1,3.6-8.1,8.1c0,4.5,3.6,8.1,8.1,8.1s8.1-3.6,8.1-8.1
		C1068.3,573.7,1064.7,570.1,1060.2,570.1z"/>
	<path class="st0" d="M1041.2,589.9c-4.1,0-7.4,3.3-7.4,7.4c0,4.1,3.3,7.4,7.4,7.4c4.1,0,7.4-3.3,7.4-7.4
		C1048.5,593.2,1045.2,589.9,1041.2,589.9z"/>
	<circle class="st0" cx="1022.1" cy="616.3" r="6.7"/>
	<circle class="st0" cx="1003" cy="635.4" r="6"/>
	<path class="st0" d="M983.9,649.3c-2.9,0-5.2,2.3-5.2,5.2c0,2.9,2.3,5.2,5.2,5.2s5.2-2.3,5.2-5.2
		C989.1,651.6,986.8,649.3,983.9,649.3z"/>
	<path class="st0" d="M964.8,669.1c-2.5,0-4.5,2-4.5,4.5c0,2.5,2,4.5,4.5,4.5c2.5,0,4.5-2,4.5-4.5
		C969.3,671.1,967.3,669.1,964.8,669.1z"/>
	<path class="st0" d="M945.7,688.9c-2.1,0-3.8,1.7-3.8,3.8c0,2.1,1.7,3.8,3.8,3.8c2.1,0,3.8-1.7,3.8-3.8
		C949.5,690.6,947.8,688.9,945.7,688.9z"/>
	<path class="st0" d="M926.6,708.7c-1.7,0-3.1,1.4-3.1,3.1c0,1.7,1.4,3.1,3.1,3.1c1.7,0,3.1-1.4,3.1-3.1
		C929.7,710.1,928.4,708.7,926.6,708.7z"/>
	<path class="st0" d="M1061.6,549.5C1061.6,549.5,1061.6,549.5,1061.6,549.5C1061.6,549.5,1061.6,549.5,1061.6,549.5
		c5.2,0,9.5-4.3,9.5-9.5s-4.3-9.5-9.5-9.5c0,0,0,0,0,0c0,0,0,0,0,0c-5.2,0-9.5,4.3-9.5,9.5S1056.4,549.5,1061.6,549.5z"/>
	<circle class="st0" cx="1042.5" cy="559.1" r="8.8"/>
	<circle class="st0" cx="1023.4" cy="578.2" r="8.1"/>
	<path class="st0" d="M1004.3,589.9c-4.1,0-7.4,3.3-7.4,7.4c0,4.1,3.3,7.4,7.4,7.4s7.4-3.3,7.4-7.4
		C1011.7,593.2,1008.4,589.9,1004.3,589.9z"/>
	<path class="st0" d="M985.3,609.7c-3.7,0-6.7,3-6.7,6.7c0,3.7,3,6.7,6.7,6.7c3.7,0,6.7-3,6.7-6.7
		C991.9,612.7,988.9,609.7,985.3,609.7z"/>
	<path class="st0" d="M966.2,629.5c-3.3,0-6,2.7-6,6c0,3.3,2.7,6,6,6c3.3,0,6-2.7,6-6C972.1,632.1,969.5,629.5,966.2,629.5z"/>
	<path class="st0" d="M947.1,649.3c-2.9,0-5.2,2.3-5.2,5.2c0,2.9,2.3,5.2,5.2,5.2s5.2-2.3,5.2-5.2
		C952.3,651.6,950,649.3,947.1,649.3z"/>
	<circle class="st0" cx="928" cy="673.6" r="4.5"/>
	<path class="st0" d="M908.9,688.9c-2.1,0-3.8,1.7-3.8,3.8c0,2.1,1.7,3.8,3.8,3.8s3.8-1.7,3.8-3.8
		C912.7,690.6,911,688.9,908.9,688.9z"/>
	<path class="st0" d="M889.8,708.7c-1.7,0-3.1,1.4-3.1,3.1c0,1.7,1.4,3.1,3.1,3.1c1.7,0,3.1-1.4,3.1-3.1
		C892.9,710.1,891.5,708.7,889.8,708.7z"/>
	<path class="st0" d="M1024.8,549.5C1024.8,549.5,1024.8,549.5,1024.8,549.5C1024.8,549.5,1024.8,549.5,1024.8,549.5
		c5.2,0,9.5-4.3,9.5-9.5s-4.3-9.5-9.5-9.5c0,0,0,0,0,0c0,0,0,0,0,0c-5.2,0-9.5,4.3-9.5,9.5S1019.5,549.5,1024.8,549.5z"/>
	<path class="st0" d="M1005.7,550.3c-4.9,0-8.8,3.9-8.8,8.8s3.9,8.8,8.8,8.8s8.8-3.9,8.8-8.8S1010.6,550.3,1005.7,550.3z"/>
	<circle class="st0" cx="986.6" cy="578.2" r="8.1"/>
	<circle class="st0" cx="967.5" cy="597.3" r="7.4"/>
	<circle class="st0" cx="948.4" cy="616.3" r="6.7"/>
	<path class="st0" d="M929.4,629.5c-3.3,0-6,2.7-6,6c0,3.3,2.7,6,6,6s6-2.7,6-6C935.3,632.1,932.6,629.5,929.4,629.5z"/>
	<path class="st0" d="M910.3,649.3c-2.9,0-5.2,2.3-5.2,5.2c0,2.9,2.3,5.2,5.2,5.2c2.9,0,5.2-2.3,5.2-5.2
		C915.5,651.6,913.2,649.3,910.3,649.3z"/>
	<path class="st0" d="M891.2,669.1c-2.5,0-4.5,2-4.5,4.5c0,2.5,2,4.5,4.5,4.5c2.5,0,4.5-2,4.5-4.5
		C895.7,671.1,893.7,669.1,891.2,669.1z"/>
	<path class="st0" d="M872.1,688.9c-2.1,0-3.8,1.7-3.8,3.8c0,2.1,1.7,3.8,3.8,3.8c2.1,0,3.8-1.7,3.8-3.8
		C875.9,690.6,874.2,688.9,872.1,688.9z"/>
	<path class="st0" d="M853,708.7c-1.7,0-3.1,1.4-3.1,3.1c0,1.7,1.4,3.1,3.1,3.1s3.1-1.4,3.1-3.1C856.1,710.1,854.7,708.7,853,708.7z
		"/>
	<path class="st0" d="M988,549.5C988,549.5,988,549.5,988,549.5C988,549.5,988,549.5,988,549.5c5.2,0,9.5-4.3,9.5-9.5
		s-4.3-9.5-9.5-9.5c0,0,0,0,0,0s0,0,0,0c-5.2,0-9.5,4.3-9.5,9.5S982.7,549.5,988,549.5z"/>
	<circle class="st0" cx="968.9" cy="559.1" r="8.8"/>
	<path class="st0" d="M949.8,570.1c-4.5,0-8.1,3.6-8.1,8.1c0,4.5,3.6,8.1,8.1,8.1s8.1-3.6,8.1-8.1
		C957.9,573.7,954.3,570.1,949.8,570.1z"/>
	<path class="st0" d="M930.7,589.9c-4.1,0-7.4,3.3-7.4,7.4c0,4.1,3.3,7.4,7.4,7.4c4.1,0,7.4-3.3,7.4-7.4
		C938.1,593.2,934.8,589.9,930.7,589.9z"/>
	<path class="st0" d="M911.6,609.7c-3.7,0-6.7,3-6.7,6.7c0,3.7,3,6.7,6.7,6.7s6.7-3,6.7-6.7C918.3,612.7,915.3,609.7,911.6,609.7z"
		/>
	<path class="st0" d="M892.5,629.5c-3.3,0-6,2.7-6,6c0,3.3,2.7,6,6,6s6-2.7,6-6C898.5,632.1,895.8,629.5,892.5,629.5z"/>
	<path class="st0" d="M873.5,649.3c-2.9,0-5.2,2.3-5.2,5.2c0,2.9,2.3,5.2,5.2,5.2s5.2-2.3,5.2-5.2
		C878.7,651.6,876.3,649.3,873.5,649.3z"/>
	<path class="st0" d="M854.4,669.1c-2.5,0-4.5,2-4.5,4.5c0,2.5,2,4.5,4.5,4.5s4.5-2,4.5-4.5C858.9,671.1,856.9,669.1,854.4,669.1z"
		/>
	<path class="st0" d="M835.3,688.9c-2.1,0-3.8,1.7-3.8,3.8c0,2.1,1.7,3.8,3.8,3.8c2.1,0,3.8-1.7,3.8-3.8
		C839.1,690.6,837.4,688.9,835.3,688.9z"/>
	<path class="st0" d="M816.2,708.7c-1.7,0-3.1,1.4-3.1,3.1c0,1.7,1.4,3.1,3.1,3.1c1.7,0,3.1-1.4,3.1-3.1
		C819.3,710.1,817.9,708.7,816.2,708.7z"/>
	<path class="st0" d="M951.2,549.5C951.2,549.5,951.2,549.5,951.2,549.5C951.2,549.5,951.2,549.5,951.2,549.5c5.2,0,9.5-4.3,9.5-9.5
		s-4.3-9.5-9.5-9.5c0,0,0,0,0,0s0,0,0,0c-5.2,0-9.5,4.3-9.5,9.5S945.9,549.5,951.2,549.5z"/>
	<circle class="st0" cx="932.1" cy="559.1" r="8.8"/>
	<circle class="st0" cx="913" cy="578.2" r="8.1"/>
	<circle class="st0" cx="893.9" cy="597.3" r="7.4"/>
	<path class="st0" d="M874.8,623c3.7,0,6.7-3,6.7-6.7c0-3.7-3-6.7-6.7-6.7s-6.7,3-6.7,6.7C868.2,620,871.1,623,874.8,623z"/>
	<path class="st0" d="M855.7,641.4c3.3,0,6-2.7,6-6c0-3.3-2.7-6-6-6c-3.3,0-6,2.7-6,6C849.8,638.7,852.4,641.4,855.7,641.4z"/>
	<path class="st0" d="M836.6,659.8c2.9,0,5.2-2.3,5.2-5.2c0-2.9-2.3-5.2-5.2-5.2c-2.9,0-5.2,2.3-5.2,5.2
		C831.4,657.4,833.7,659.8,836.6,659.8z"/>
	<path class="st0" d="M817.6,678.1c2.5,0,4.5-2,4.5-4.5c0-2.5-2-4.5-4.5-4.5c-2.5,0-4.5,2-4.5,4.5C813,676.1,815,678.1,817.6,678.1z
		"/>
	<path class="st0" d="M798.5,696.5c2.1,0,3.8-1.7,3.8-3.8c0-2.1-1.7-3.8-3.8-3.8s-3.8,1.7-3.8,3.8
		C794.6,694.8,796.4,696.5,798.5,696.5z"/>
	<path class="st0" d="M779.4,708.7c-1.7,0-3.1,1.4-3.1,3.1c0,1.7,1.4,3.1,3.1,3.1s3.1-1.4,3.1-3.1
		C782.5,710.1,781.1,708.7,779.4,708.7z"/>
	<circle class="st0" cx="1116.1" cy="520.9" r="8.8"/>
	<circle class="st0" cx="1097.1" cy="501.8" r="8.1"/>
	<path class="st0" d="M1078,490.1c4.1,0,7.4-3.3,7.4-7.4c0-4.1-3.3-7.4-7.4-7.4s-7.4,3.3-7.4,7.4
		C1070.6,486.8,1073.9,490.1,1078,490.1z"/>
	<path class="st0" d="M1058.9,470.3c3.7,0,6.7-3,6.7-6.7c0-3.7-3-6.7-6.7-6.7c-3.7,0-6.7,3-6.7,6.7
		C1052.2,467.3,1055.2,470.3,1058.9,470.3z"/>
	<path class="st0" d="M1039.8,450.5c3.3,0,6-2.7,6-6c0-3.3-2.7-6-6-6c-3.3,0-6,2.7-6,6C1033.8,447.9,1036.5,450.5,1039.8,450.5z"/>
	<path class="st0" d="M1020.7,430.7c2.9,0,5.2-2.3,5.2-5.2c0-2.9-2.3-5.2-5.2-5.2s-5.2,2.3-5.2,5.2
		C1015.5,428.4,1017.8,430.7,1020.7,430.7z"/>
	<circle class="st0" cx="1001.6" cy="406.4" r="4.5"/>
	<path class="st0" d="M982.5,391.1c2.1,0,3.8-1.7,3.8-3.8s-1.7-3.8-3.8-3.8c-2.1,0-3.8,1.7-3.8,3.8S980.4,391.1,982.5,391.1z"/>
	<path class="st0" d="M963.4,371.3c1.7,0,3.1-1.4,3.1-3.1s-1.4-3.1-3.1-3.1c-1.7,0-3.1,1.4-3.1,3.1S961.7,371.3,963.4,371.3z"/>
	<circle class="st0" cx="1079.3" cy="520.9" r="8.8"/>
	<circle class="st0" cx="1060.2" cy="501.8" r="8.1"/>
	<circle class="st0" cx="1041.2" cy="482.7" r="7.4"/>
	<path class="st0" d="M1022.1,470.3c3.7,0,6.7-3,6.7-6.7c0-3.7-3-6.7-6.7-6.7c-3.7,0-6.7,3-6.7,6.7
		C1015.4,467.3,1018.4,470.3,1022.1,470.3z"/>
	<path class="st0" d="M1003,450.5c3.3,0,6-2.7,6-6c0-3.3-2.7-6-6-6c-3.3,0-6,2.7-6,6C997,447.9,999.7,450.5,1003,450.5z"/>
	<path class="st0" d="M983.9,430.7c2.9,0,5.2-2.3,5.2-5.2c0-2.9-2.3-5.2-5.2-5.2c-2.9,0-5.2,2.3-5.2,5.2
		C978.7,428.4,981,430.7,983.9,430.7z"/>
	<path class="st0" d="M964.8,410.9c2.5,0,4.5-2,4.5-4.5c0-2.5-2-4.5-4.5-4.5c-2.5,0-4.5,2-4.5,4.5
		C960.3,408.9,962.3,410.9,964.8,410.9z"/>
	<circle class="st0" cx="945.7" cy="387.3" r="3.8"/>
	<path class="st0" d="M926.6,371.3c1.7,0,3.1-1.4,3.1-3.1s-1.4-3.1-3.1-3.1s-3.1,1.4-3.1,3.1S924.9,371.3,926.6,371.3z"/>
	<circle class="st0" cx="1042.5" cy="520.9" r="8.8"/>
	<path class="st0" d="M1023.4,509.9c4.5,0,8.1-3.6,8.1-8.1s-3.6-8.1-8.1-8.1c-4.5,0-8.1,3.6-8.1,8.1S1019,509.9,1023.4,509.9z"/>
	<path class="st0" d="M1004.3,490.1c4.1,0,7.4-3.3,7.4-7.4c0-4.1-3.3-7.4-7.4-7.4s-7.4,3.3-7.4,7.4
		C997,486.8,1000.3,490.1,1004.3,490.1z"/>
	<path class="st0" d="M985.3,470.3c3.7,0,6.7-3,6.7-6.7c0-3.7-3-6.7-6.7-6.7s-6.7,3-6.7,6.7C978.6,467.3,981.6,470.3,985.3,470.3z"
		/>
	<circle class="st0" cx="966.2" cy="444.6" r="6"/>
	<path class="st0" d="M947.1,430.7c2.9,0,5.2-2.3,5.2-5.2c0-2.9-2.3-5.2-5.2-5.2s-5.2,2.3-5.2,5.2
		C941.8,428.4,944.2,430.7,947.1,430.7z"/>
	<path class="st0" d="M928,410.9c2.5,0,4.5-2,4.5-4.5c0-2.5-2-4.5-4.5-4.5c-2.5,0-4.5,2-4.5,4.5C923.5,408.9,925.5,410.9,928,410.9z
		"/>
	<path class="st0" d="M908.9,391.1c2.1,0,3.8-1.7,3.8-3.8s-1.7-3.8-3.8-3.8c-2.1,0-3.8,1.7-3.8,3.8S906.8,391.1,908.9,391.1z"/>
	<path class="st0" d="M889.8,371.3c1.7,0,3.1-1.4,3.1-3.1s-1.4-3.1-3.1-3.1c-1.7,0-3.1,1.4-3.1,3.1S888.1,371.3,889.8,371.3z"/>
	<circle class="st0" cx="1005.7" cy="520.9" r="8.8"/>
	<circle class="st0" cx="986.6" cy="501.8" r="8.1"/>
	<circle class="st0" cx="967.5" cy="482.7" r="7.4"/>
	<path class="st0" d="M948.4,470.3c3.7,0,6.7-3,6.7-6.7c0-3.7-3-6.7-6.7-6.7c-3.7,0-6.7,3-6.7,6.7
		C941.8,467.3,944.8,470.3,948.4,470.3z"/>
	<path class="st0" d="M929.4,450.5c3.3,0,6-2.7,6-6c0-3.3-2.7-6-6-6c-3.3,0-6,2.7-6,6C923.4,447.9,926.1,450.5,929.4,450.5z"/>
	<path class="st0" d="M910.3,430.7c2.9,0,5.2-2.3,5.2-5.2c0-2.9-2.3-5.2-5.2-5.2c-2.9,0-5.2,2.3-5.2,5.2
		C905,428.4,907.4,430.7,910.3,430.7z"/>
	<path class="st0" d="M891.2,410.9c2.5,0,4.5-2,4.5-4.5c0-2.5-2-4.5-4.5-4.5s-4.5,2-4.5,4.5C886.6,408.9,888.7,410.9,891.2,410.9z"
		/>
	<circle class="st0" cx="872.1" cy="387.3" r="3.8"/>
	<path class="st0" d="M853,371.3c1.7,0,3.1-1.4,3.1-3.1s-1.4-3.1-3.1-3.1c-1.7,0-3.1,1.4-3.1,3.1S851.3,371.3,853,371.3z"/>
	<path class="st0" d="M968.9,529.7c4.9,0,8.8-3.9,8.8-8.8s-3.9-8.8-8.8-8.8c-4.9,0-8.8,3.9-8.8,8.8S964,529.7,968.9,529.7z"/>
	<circle class="st0" cx="949.8" cy="501.8" r="8.1"/>
	<circle class="st0" cx="930.7" cy="482.7" r="7.4"/>
	<circle class="st0" cx="911.6" cy="463.7" r="6.7"/>
	<path class="st0" d="M892.5,450.5c3.3,0,6-2.7,6-6c0-3.3-2.7-6-6-6s-6,2.7-6,6C886.6,447.9,889.3,450.5,892.5,450.5z"/>
	<path class="st0" d="M873.5,430.7c2.9,0,5.2-2.3,5.2-5.2c0-2.9-2.3-5.2-5.2-5.2c-2.9,0-5.2,2.3-5.2,5.2
		C868.2,428.4,870.6,430.7,873.5,430.7z"/>
	<path class="st0" d="M854.4,410.9c2.5,0,4.5-2,4.5-4.5c0-2.5-2-4.5-4.5-4.5c-2.5,0-4.5,2-4.5,4.5
		C849.8,408.9,851.9,410.9,854.4,410.9z"/>
	<path class="st0" d="M835.3,391.1c2.1,0,3.8-1.7,3.8-3.8s-1.7-3.8-3.8-3.8c-2.1,0-3.8,1.7-3.8,3.8S833.2,391.1,835.3,391.1z"/>
	<path class="st0" d="M816.2,371.3c1.7,0,3.1-1.4,3.1-3.1s-1.4-3.1-3.1-3.1c-1.7,0-3.1,1.4-3.1,3.1S814.5,371.3,816.2,371.3z"/>
	<circle class="st0" cx="932.1" cy="520.9" r="8.8"/>
	<circle class="st0" cx="913" cy="501.8" r="8.1"/>
	<path class="st0" d="M893.9,490.1c4.1,0,7.4-3.3,7.4-7.4c0-4.1-3.3-7.4-7.4-7.4c-4.1,0-7.4,3.3-7.4,7.4
		C886.5,486.8,889.8,490.1,893.9,490.1z"/>
	<path class="st0" d="M874.8,470.3c3.7,0,6.7-3,6.7-6.7c0-3.7-3-6.7-6.7-6.7c-3.7,0-6.7,3-6.7,6.7
		C868.2,467.3,871.1,470.3,874.8,470.3z"/>
	<path class="st0" d="M855.7,450.5c3.3,0,6-2.7,6-6c0-3.3-2.7-6-6-6s-6,2.7-6,6C849.8,447.9,852.4,450.5,855.7,450.5z"/>
	<path class="st0" d="M836.6,430.7c2.9,0,5.2-2.3,5.2-5.2c0-2.9-2.3-5.2-5.2-5.2s-5.2,2.3-5.2,5.2
		C831.4,428.4,833.7,430.7,836.6,430.7z"/>
	<path class="st0" d="M817.6,410.9c2.5,0,4.5-2,4.5-4.5c0-2.5-2-4.5-4.5-4.5s-4.5,2-4.5,4.5C813,408.9,815,410.9,817.6,410.9z"/>
	<path class="st0" d="M798.5,391.1c2.1,0,3.8-1.7,3.8-3.8s-1.7-3.8-3.8-3.8c-2.1,0-3.8,1.7-3.8,3.8S796.4,391.1,798.5,391.1z"/>
	<path class="st0" d="M779.4,371.3c1.7,0,3.1-1.4,3.1-3.1s-1.4-3.1-3.1-3.1c-1.7,0-3.1,1.4-3.1,3.1S777.7,371.3,779.4,371.3z"/>
</g>
</svg>
